<svg xmlns="http://www.w3.org/2000/svg" viewBox="0 0 485.27 452.12"><defs><style>.cls-1{fill:none;}.cls-2{fill:#13417d;}.cls-3{fill:#13417e;}.cls-4{fill:#8ebde4;}.cls-5{fill:#14417d;}.cls-6{fill:#14417e;}.cls-7{fill:#8dbee3;}.cls-8{fill:#16407d;}.cls-9{fill:#15417f;}</style></defs><g id="Layer_2" data-name="Layer 2"><g id="Layer_1-2" data-name="Layer 1"><path class="cls-1" d="M0,0V452.12H485.27V0ZM449.76,199.89a5.83,5.83,0,0,1,6.11,5.7c.05.66-.09.9-.79.88-1.81-.05-3.62,0-5.42,0s-3.52,0-5.28,0c-.69,0-.85-.21-.8-.87A6,6,0,0,1,449.76,199.89ZM393,220.28c-2.47,0-4.23-1.34-4.36-3.36a3.06,3.06,0,0,1,2-3.33c2.72-1.15,5.62-1,8.49-1,.59,0,.5.43.47.78C399.33,216.78,397.3,220.18,393,220.28Zm-176.4-14.77a6,6,0,0,1,6.11-5.61,5.8,5.8,0,0,1,6.16,5.49c.09.85-.13,1.14-1,1.1-1.71-.08-3.42,0-5.14,0s-3.52,0-5.27,0C216.6,206.51,216.51,206.19,216.58,205.51Zm-25.2-1.85c-1.93.15-3.89,0-5.84.09-.78,0-.77-.4-.77-1,0-1.9,0-3.8,0-5.71s0-3.71,0-5.56c0-.44-.16-1,.62-1,2.26.1,4.55-.24,6.79.26,3.34.75,5.1,3.3,4.89,7A6,6,0,0,1,191.38,203.66Zm-95.85,52.5a30.18,30.18,0,0,1-6.23-.6,8.4,8.4,0,0,1-1.7-.61,2.23,2.23,0,0,1-1.6-2.06c0-1,.85-1.39,1.59-1.73a32.74,32.74,0,0,1,9.7-2.32,19,19,0,0,1,6.51,0c1.23.26,2.7.44,3.06,1.81s-.77,2.3-1.7,3.13a8,8,0,0,1-4.77,2.06C98.77,256,97.15,256.05,95.53,256.16Z"/><g id="XZ4bOI"><path class="cls-2" d="M144.26,169.07a1.41,1.41,0,0,0-1.13-1.58,172.46,172.46,0,0,0-41.51-8.91,205.79,205.79,0,0,0-39.94.15,174,174,0,0,0-40,8.71,1.55,1.55,0,0,0-1.24,1.76c0,14,.08,28,0,42a70.62,70.62,0,0,0,8.41,34.37c.21.41.45.8.86,1.53a20.53,20.53,0,0,1,2.66-7.71A16.16,16.16,0,0,0,34,227.5a19.14,19.14,0,0,1,1.39-13.4,94.65,94.65,0,0,1,10.56-16.82c.83-1.06,1.47-1.18,2.16.05a.86.86,0,0,0,1.16.48c.48-.23.33-.71.28-1.11a7.33,7.33,0,0,0-.19-.81A34.64,34.64,0,0,1,48.42,185c.2-3.79,2.87-6,5.48-8.18,2.1-1.74,4-1.56,5.93.37a54.6,54.6,0,0,1,5.27,6.11,2.09,2.09,0,0,0,2,.89c10.63-.4,21.17,0,31.23,4.05.35.14.78.31,1,0s-.06-.69-.26-1c-.39-.56-.38-1.07.26-1.4,3.17-1.64,6.3-3.38,9.94-3.8a3.28,3.28,0,0,1,3.34,1.54,12.41,12.41,0,0,1,1.91,4.3,12.69,12.69,0,0,1-2.13,9.92,1.07,1.07,0,0,0,.14,1.63,17.83,17.83,0,0,1,2.92,3.71c1,1.74.46,3.41-.15,5.09a.79.79,0,0,1-.86.56c-.51,0-.59-.4-.64-.77-.08-.59-.1-1.2-.16-1.8a6.83,6.83,0,0,0-4.56-5.32,5.89,5.89,0,0,0-6.26,2,3.56,3.56,0,0,0-.58,4.15c.88,1.79,1.81,3.56,2.8,5.29.9,1.58,3.77,1.79,5.3.27a3.86,3.86,0,0,1-3.3-1.31,17.33,17.33,0,0,1-2.09-3.76c-.22-.5,0-.75.31-1.06a4.69,4.69,0,0,1,5.32-.61c1.4.89,2,2.6,1.22,4.59-.4,1.11,0,1.41.94,1.56a3,3,0,0,1,2.64,2.5c.24,1.23.52,2.44.86,3.65a10.61,10.61,0,0,1,0,5.62c-.38,1.44-.73,2.88-1.09,4.32a3.69,3.69,0,0,0-.11,1.78,3.34,3.34,0,0,0,.46,1.43,11.43,11.43,0,0,1-.45,9.95,35.36,35.36,0,0,1-3.85,5.29,2,2,0,0,1-1.94.87c-2.57-.4-4.9-1.13-5.58-4.14-.15-.67-.27-1.59-1.19-1.69s-1.31.77-1.71,1.41a7.1,7.1,0,0,1-4.64,3.28c-2.58.58-5.15,1.2-7.75,1.69a7.88,7.88,0,0,1-4.36.1c-3-.95-5-3-6.81-5.46a10.41,10.41,0,0,1-2.07-5.08c-.17-1.54-.06-3.07-.24-4.59-.08-.66-.29-1.38-1-1.48s-1.05.63-1.25,1.25c-.41,1.29-.42,2.66-.74,4-.47,1.92-1.12,2.38-3,1.81-3.28-1-6.54-2.12-9.78-3.26a5.2,5.2,0,0,1-3.15-3c-.46-1.06-.92-2.13-1.39-3.19-.31-.69-.62-1.46-1.56-1.33s-1,1-1.08,1.72c-.16,1.53-.3,3-.46,4.57-.39,3.65-2.43,6.49-4.64,9.2a15.9,15.9,0,0,0-3.51,13.13c-.34,6.52,2.57,11.51,7.32,15.64,1.26,1.1,2.49,2.23,3.76,3.31,8.55,7.25,18,13.13,27.48,19.11.08.05.3-.11.46-.18.19-1.88.38-3.76.43-5.66a15.09,15.09,0,0,1,2.7-8.63c1.11-1.57,2.54-2.82,3.77-4.27a72.39,72.39,0,0,1,6-6c1-.95,1.26-.83,1.66.53.13.43.43.78.54,1.22a.06.06,0,0,1,0,0,16.51,16.51,0,0,0,1.78,4.5,7.52,7.52,0,0,0,4.53,3.67,1.41,1.41,0,0,0,1.4-.25,126.26,126.26,0,0,0,22-20.86c10.76-13.32,16.9-28.4,17-45.65C144.33,198.26,144.23,183.66,144.26,169.07Zm-39.1,84.69a8,8,0,0,1-4.77,2.06c-1.62.15-3.24.23-4.86.34a30.18,30.18,0,0,1-6.23-.6,8.4,8.4,0,0,1-1.7-.61,2.23,2.23,0,0,1-1.6-2.06c0-1,.85-1.39,1.59-1.73a32.74,32.74,0,0,1,9.7-2.32,19,19,0,0,1,6.51,0c1.23.26,2.7.44,3.06,1.81S106.09,252.93,105.16,253.76Z"/><path class="cls-3" d="M323.22,218.67c0-1.49,0-3,0-4.46,0-.89.28-1.1,1.12-1.07,1.72.06,3.44.08,5.15,0,1,0,1.29.33,1.2,1.27s.08,1.68,0,2.5c-.2,1.34.46,1.72,1.62,1.93,2.6.47,5.19,1.06,7.86.56,2.42-.46,3.88-1.74,4.2-3.68.39-2.42-.49-4.11-2.78-5.38a30.07,30.07,0,0,0-6.57-2.21,28.54,28.54,0,0,1-5.61-2.05c-4.69-2.44-6.19-6.56-5.85-11.51s3-7.95,7.51-9.55c3.76-1.34,7.66-1.31,11.56-1a35.68,35.68,0,0,1,8,1.59c.66.21,1.11.45,1.09,1.32-.07,2.64-.06,5.29,0,7.94,0,.8-.25,1-1,1-1.81-.05-3.63-.05-5.44,0-.76,0-1-.27-.93-1s-.07-1.59,0-2.37c.17-1.28-.27-1.89-1.59-2.15a13.65,13.65,0,0,0-6.6-.08,4.73,4.73,0,0,0-3.67,4.23,4.41,4.41,0,0,0,3.13,4.59c2.35.83,4.8,1.38,7.2,2.09a21,21,0,0,1,6.85,3.31c5.44,4.08,5.6,16.88-3.81,20.38-4.08,1.52-8.27,1.55-12.5,1.26a39.53,39.53,0,0,1-9.12-1.81,1.16,1.16,0,0,1-1-1.36C323.27,221.55,323.22,220.11,323.22,218.67Z"/><path class="cls-4" d="M84.06,248.07a3.3,3.3,0,0,1-1.76-.35c-3.81-2.25-6.63-5.27-7.41-9.83a28.09,28.09,0,0,1-.26-4.58c0-.66,0-1.49-.78-1.58s-.81.73-.92,1.32c-.26,1.4-.47,2.83-.8,4.22-.45,1.84-1,2.29-2.77,1.76-3.62-1.13-7.2-2.39-10.78-3.66a4.92,4.92,0,0,1-2.94-3c-.49-1.24-1.06-2.46-1.59-3.7-.17-.39-.35-.76-.88-.74s-.63.52-.69.89c-.26,1.92-.49,3.85-.72,5.78a12.33,12.33,0,0,1-2.35,5.87c-.9,1.24-1.79,2.49-2.76,3.67a15.39,15.39,0,0,0-3.2,9.71c0,.84-.06,1.67-.08,2.5A37,37,0,0,1,42,248.91c-.34-2.8-.61-5.62-.76-8.44a9,9,0,0,1,2.26-6.11c1.3-1.63,2.47-3.36,3.79-5a11.74,11.74,0,0,0,2.45-7.65A80,80,0,0,0,49,211.49a6.69,6.69,0,0,1,.29-3.43,1.48,1.48,0,0,1,2.65-.39,6.48,6.48,0,0,1,1.16,2.51c.46,1.46.94,2.9,1.48,4.33,1.27,3.38,3.9,4.78,7.2,5.34,5.43.93,10.92,1.44,16.33,2.48A4.77,4.77,0,0,1,82,225.56c1,2.6,1.83,5.25,2.67,7.9a6.84,6.84,0,0,1-.6,5,14.84,14.84,0,0,0-1,6.68A7.11,7.11,0,0,0,84.06,248.07Z"/><path class="cls-3" d="M205.68,193.81c-1.16-5-5.8-8.63-11.71-9.08-6.22-.48-12.44-.12-18.66-.22-3.2,0-3.2,0-3.18,3.18,0,2.85,0,2.9,2.88,2.85,1.05,0,1.17.39,1.17,1.28,0,4.41,0,8.82,0,13.23v11.56c0,2.91,0,2.93-2.92,2.95-.79,0-1.19.11-1.14,1a29.86,29.86,0,0,1,0,3.9c-.06,1,.33,1.16,1.2,1.16,4.28,0,8.55,0,12.82,0,2.69,0,2.7,0,2.69-2.7,0-1.06.3-2.39-.21-3.11s-1.91-.22-2.92-.23c-.73,0-.94-.21-.93-.94.05-2.56.08-5.11,0-7.66,0-1,.29-1.22,1.23-1.22a65.33,65.33,0,0,0,8.62-.24C202.9,208.46,207.57,201.87,205.68,193.81Zm-14.3,9.85c-1.93.15-3.89,0-5.84.09-.78,0-.77-.4-.77-1,0-1.9,0-3.8,0-5.71s0-3.71,0-5.56c0-.44-.16-1,.62-1,2.26.1,4.55-.24,6.79.26,3.34.75,5.1,3.3,4.89,7A6,6,0,0,1,191.38,203.66Z"/><path class="cls-3" d="M253.11,198.66c2.91-3.69,6.81-4.94,11.27-4.32,6,.82,9.82,5.31,9.9,11.4.06,4.19.05,8.37,0,12.55,0,1,.21,1.36,1.29,1.32,2.28-.08,2.32,0,2.27,2.33,0,1.19.54,2.71-.28,3.48s-2.22.2-3.37.21c-3.44,0-6.88,0-10.32,0-.9,0-1.24-.25-1.19-1.18a31.45,31.45,0,0,0,0-3.76c-.06-1,.3-1.17,1.19-1.16,2.15,0,2.15,0,2.15-2.19,0-3.48.05-7,0-10.45a5.37,5.37,0,0,0-3.82-5.26,6.68,6.68,0,0,0-7.07,1.6,6.43,6.43,0,0,0-1.42,4.27c0,3.67,0,7.34,0,11,0,.87.24,1.08,1.09,1.07,2.43,0,2.43,0,2.43,2.5,0,3.54,0,3.54-3.54,3.54s-6.88,0-10.32,0c-.93,0-1.35-.18-1.28-1.21a29.64,29.64,0,0,0,0-3.77c0-.84.18-1.12,1.07-1.12,2.28,0,2.28,0,2.28-2.34,0-5,0-9.94,0-14.92,0-1-.22-1.43-1.35-1.4-2.62.07-2.62,0-2.62-2.68,0-3.3,0-3.3,3.32-3.3,2.32,0,4.65,0,7,0,.76,0,1.13.17,1.09,1s0,1.75,0,2.62Z"/><path class="cls-3" d="M292.84,198.77c4.46-4.51,9.45-5.76,14.48-3.66,4.59,1.92,6.65,5.64,6.84,10.41.18,4.22.08,8.45,0,12.68,0,1.05.2,1.45,1.35,1.41,2.25-.1,2.29,0,2.23,2.25,0,1.23.59,2.87-.31,3.58s-2.32.19-3.52.19c-3.39,0-6.79,0-10.18,0-.82,0-1.17-.19-1.13-1.08.07-1.34.05-2.7,0-4,0-.69.12-.95.89-1,2.48-.06,2.49-.09,2.48-2.59,0-3.3.09-6.6-.1-9.89-.23-3.79-2.48-5.78-6.13-5.76s-6,2.07-6.16,5.89,0,7.71-.06,11.57c0,.74.32.79.92.81,2.64.08,2.64.1,2.64,2.7,0,3.35,0,3.35-3.31,3.35-3.53,0-7.06,0-10.59,0-.95,0-1.35-.25-1.29-1.25a31.45,31.45,0,0,0,0-3.76c-.05-.88.27-1.09,1.11-1.08,2.26,0,2.26,0,2.26-2.37,0-5,0-10,0-15.05,0-1-.28-1.25-1.25-1.24-2.74,0-2.74,0-2.74-2.73,0-3.26,0-3.26,3.23-3.26,2.32,0,4.64,0,7,0,.92,0,1.24.27,1.2,1.18S292.79,197.71,292.84,198.77Z"/><path class="cls-5" d="M410.67,221.49c0-1.9,0-2-1.91-1.89-1.05.05-1.28-.24-1.27-1.28,0-4.6.24-9.21-.12-13.8a10.11,10.11,0,0,0-8.18-9.66A23.69,23.69,0,0,0,382.57,197a1.22,1.22,0,0,0-.83,1.25c0,2,.05,4,0,6,0,.83.3,1.05,1.05,1,1.44,0,2.89-.08,4.32,0,1.1.07,1.42-.31,1.4-1.41-.05-3.15,0-3.2,3.24-3.51.65-.06,1.3-.06,1.95-.06,4.29,0,6.07,1.86,6,6.16,0,.84-.21,1.13-1.09,1.11-1.86,0-3.72,0-5.58.08a19.42,19.42,0,0,0-7.91,1.92,8.42,8.42,0,0,0-4.81,8.67,8.11,8.11,0,0,0,6.25,7.49c5.26,1.37,10,.68,13.81-4.15.09,1.24.21,2.21.23,3.18,0,.63.17.92.86.91q4.19,0,8.37,0c.59,0,.83-.2.81-.81C410.64,223.72,410.67,222.6,410.67,221.49Zm-11.12-8.1c-.22,3.39-2.25,6.79-6.57,6.89-2.47,0-4.23-1.34-4.36-3.36a3.06,3.06,0,0,1,2-3.33c2.72-1.15,5.62-1,8.49-1C399.67,212.61,399.58,213,399.55,213.39Z"/><path class="cls-6" d="M237.8,211.05c-.15-1.2-.16-2.41-.31-3.6-1-7.44-5.22-12.15-12.28-13.07-5.88-.76-11.09.78-14.73,5.86-2.72,3.8-3.27,8.17-2.75,12.64.66,5.73,3.52,10.07,9.08,12.13s11.4,1.53,17.13,0c1.47-.38,2.05-1.1,1.85-2.61a13,13,0,0,1,0-2.92c.1-1.2-.15-1.56-1.41-1.05a21.63,21.63,0,0,1-9.56,1.39c-4.27-.26-7.42-2.8-8.15-6.52-.17-.84-.1-1.27,1-1.25,3.2.07,6.41,0,9.61,0h0c3.16,0,6.32,0,9.48,0C237.57,212.14,237.91,211.94,237.8,211.05Zm-10-4.56c-1.71-.08-3.42,0-5.14,0s-3.52,0-5.27,0c-.82,0-.91-.29-.84-1a6,6,0,0,1,6.11-5.61,5.8,5.8,0,0,1,6.16,5.49C228.94,206.24,228.72,206.53,227.83,206.49Z"/><path class="cls-3" d="M464.83,210.81a25.68,25.68,0,0,0-1-6.17c-3.1-10.79-17.09-14.24-24.95-6.14-3.94,4.07-4.72,9.13-4.18,14.49a14,14,0,0,0,11.44,12.73,31.54,31.54,0,0,0,14.61-.61c1.54-.39,2.26-1.11,2-2.78a13.61,13.61,0,0,1,0-3.06c.08-1.1-.25-1.24-1.24-.84a22.13,22.13,0,0,1-9.7,1.43c-4.28-.28-7.3-2.67-8.14-6.36-.22-.94-.16-1.44,1.05-1.41,3.16.08,6.32,0,9.48,0s6.23-.05,9.35,0C464.69,212.18,464.87,211.8,464.83,210.81Zm-9.75-4.34c-1.81-.05-3.62,0-5.42,0s-3.52,0-5.28,0c-.69,0-.85-.21-.8-.87a6,6,0,0,1,6.18-5.71,5.83,5.83,0,0,1,6.11,5.7C455.92,206.25,455.78,206.49,455.08,206.47Z"/><path class="cls-2" d="M369.11,208.91c0,2.28-.06,4.55,0,6.83.09,2.84,1.45,4.09,4.29,4.16a13.64,13.64,0,0,0,3.19-.29c.62-.14.95,0,.91.74,0,.88,0,1.77,0,2.65,0,2.43,0,2.49-2.32,2.88-3,.5-6.09.8-9.06-.35a7.78,7.78,0,0,1-5.33-7.7c0-5.16-.05-10.31,0-15.47,0-1.12-.23-1.51-1.42-1.47-2.75.09-2.78,0-2.74-2.7,0-1.05-.48-2.38.23-3.08s2-.19,3-.18c.72,0,1-.2,1-.94-.05-1.53,0-3.07,0-4.6,0-.91.3-1.07,1.13-1,2,.06,4,0,6,0,.88,0,1.24.2,1.19,1.15-.08,1.44,0,2.88,0,4.32,0,.84.2,1.15,1.09,1.13,2-.06,4,0,6-.05,1,0,1.17.32,1.13,1.19a31.23,31.23,0,0,0,0,3.62c.06.94-.17,1.3-1.2,1.26-2-.09-4,0-6,0-.8,0-1,.25-1,1,.05,2.32,0,4.65,0,7Z"/><path class="cls-2" d="M416,210.16c0-2.75,0-5.49,0-8.23,0-.77-.2-1-1-1-1,0-2.43.52-3-.28s-.14-2-.14-3c0-2.71,0-2.78,2.77-2.7,1.19,0,1.5-.34,1.42-1.47-.09-1.44,0-2.88,0-4.32,0-.61.2-.81.8-.8,2.23,0,4.46,0,6.69,0,.73,0,.82.35.81.94,0,1.49,0,3,0,4.46,0,.89.2,1.22,1.15,1.19,2-.07,4,0,6-.05.75,0,1.09.13,1.05,1-.06,1.39-.06,2.79,0,4.18,0,.77-.27.93-1,.91-2,0-4.09,0-6.13,0-.85,0-1.12.22-1.11,1.09,0,4.5,0,9,.07,13.51.05,3.09,1.43,4.37,4.49,4.4a13.45,13.45,0,0,0,3-.29c.69-.15.91,0,.87.76s0,1.67,0,2.5c0,2.56,0,2.6-2.45,3a17.72,17.72,0,0,1-8.41-.19A7.94,7.94,0,0,1,416,218c0-2.6,0-5.2,0-7.8Z"/><path class="cls-4" d="M82.39,294.24c-.31-6.31,0-12.4,5.06-17.17,2.32-2.2,4.45-4.59,6.68-6.88A9.58,9.58,0,0,1,95.47,269c1.23-.86,1.61-.66,1.76.82.06.55.17,1.09.25,1.64-.42-.44-.43-.28-.56.24a28.53,28.53,0,0,0-.21,12.77c.12.56.11.93-.44,1.28-4.34,2.73-8.65,5.5-13,8.25C83,294.15,82.75,294.37,82.39,294.24Z"/><path class="cls-6" d="M86.58,211.7c-.52.13-1,.51-1.65.18.2-.8,1-1.18,1.34-1.88a2.87,2.87,0,0,0-.28-3.36,5.52,5.52,0,0,0-5.45-2.09,6.43,6.43,0,0,0-4.9,3.51c-.25.47,0,.79.18,1.16a6,6,0,0,0,3.94,3.07c.35.11.8.11.71.65s-.5.49-.87.52a7.71,7.71,0,0,1-6-1.69,2.14,2.14,0,0,0-2.12-.51,7.53,7.53,0,0,1-1.23.21c-1.66.11-2.4-.73-1.89-2.3a12.81,12.81,0,0,1,2.8-5.24,13.18,13.18,0,0,1,12.93-4.05c2.6.58,4.32,2.58,5.89,4.63A5.63,5.63,0,0,1,86.58,211.7Z"/><path class="cls-2" d="M51.47,186.79A8.69,8.69,0,0,1,54,180.51c1.16-1.33,2.29-1.08,3.28.67,1.47,2.63,2.81,5.34,4.41,7.89.51.83,1,1.68,1.54,2.48a1.51,1.51,0,0,1-.48,2.46,23.65,23.65,0,0,0-4.92,4.06c-1.24,1.32-2.21,1.2-3.28-.34a18.11,18.11,0,0,1-2.79-7.92A15.47,15.47,0,0,1,51.47,186.79Z"/><path class="cls-7" d="M86.58,211.7A7,7,0,0,0,90,204.51a11.82,11.82,0,0,1,2.54,4.08c2.44,5,4.38,10.28,6.52,15.44.57,1.39.06,2.49-.39,3.69a.48.48,0,0,1-.24.46c-1.57.64-2.32,2-3.14,3.36a1.85,1.85,0,0,1-.86-1.64c.36-3.1-.85-5.83-1.92-8.59-1-2.59-2.08-5.16-3.16-7.72A2.63,2.63,0,0,0,86.58,211.7Z"/><path class="cls-8" d="M95.28,231.54c.25-2,1.76-3,3.38-3.82a30.58,30.58,0,0,1,11.75-.33c1.91.33,2.55.93,2.64,2.45.08,1.32-.45,2.31-1.75,2.4a5.75,5.75,0,0,0-5.49,4.43,4.3,4.3,0,0,1-2.15,2.47c-.82.42-1.29.19-1.14-.77s.42-1.71.6-2.57c.37-1.77-.12-2.58-1.87-3.12s-3.49-.46-5.21-.83A4.49,4.49,0,0,1,95.28,231.54Z"/><path class="cls-4" d="M115.41,214.51a13.39,13.39,0,0,1,1.09,9.93c-.54,1.8-1,3.63-1.43,5.44-1-.76-1.27-2-1.94-3a38.29,38.29,0,0,1-2.36-4.08c-.78-1.51-.49-2.35,1-3.24.28-.16.56-.34.85-.47A4.33,4.33,0,0,0,115.41,214.51Z"/><path class="cls-9" d="M112.55,189.47a12.82,12.82,0,0,1-2.23,6.82c-.38.61-.67.45-1,.05a16.74,16.74,0,0,0-3.75-2.85c-.76-.44-.83-1-.41-1.59a31.52,31.52,0,0,1,4.8-5.75c.72-.64,1.31-.52,1.8.33A5.65,5.65,0,0,1,112.55,189.47Z"/></g></g></g></svg>
