<svg xmlns="http://www.w3.org/2000/svg" viewBox="0 0 485.27 452.12"><defs><style>.cls-1{fill:none;}.cls-2{fill:#091f40;}.cls-3{fill:#f0c319;}.cls-4{fill:#fff;}</style></defs><g id="Layer_2" data-name="Layer 2"><g id="Layer_1-2" data-name="Layer 1"><rect class="cls-1" width="485.27" height="452.12"/><polygon class="cls-2" points="348.45 338.2 136.82 338.2 136.82 113.92 348.45 113.92 348.45 338.2 348.45 338.2"/><polygon class="cls-3" points="242.45 233.38 211.72 191.13 211.72 221.86 224.02 221.86 224.02 252.2 167.17 252.2 167.17 221.86 178.69 221.86 178.69 174.61 167.17 174.61 167.17 144.27 211.82 144.27 242.6 186.9 273.45 144.27 318.11 144.27 318.11 174.61 306.58 174.61 306.58 221.86 318.11 221.86 318.11 252.2 261.26 252.2 261.26 221.86 273.55 221.86 273.55 191.13 242.45 233.38 242.45 233.38"/><path class="cls-4" d="M276.65,298.89V300c-1.84.12-1.84.63-1.89,4.48V306a13.43,13.43,0,0,1-7.81,2.39c-7,0-10.31-5.29-10.31-10.6,0-6.49,4.4-10.71,9.9-10.71a12.28,12.28,0,0,1,7.11,2.3l1.06-1.21.15,6.35-.82.14a10.15,10.15,0,0,0-2.56-4.12,5.59,5.59,0,0,0-4-1.51c-3.54,0-6.48,3-6.48,8.82,0,4.65,2.3,8.64,6.25,8.64a4.5,4.5,0,0,0,3.51-1.69,2.93,2.93,0,0,0,.42-1.93c-.09-2.58-.44-2.64-2.69-2.87v-1.09Zm20,9v-1.09c1.66-.09,2.29-.11,2.52-1.26.29-1.35.38-13.38.41-15.48a3.93,3.93,0,0,0-2.93-1.35v-1.09h6.08c1.7,2.41,2.07,3,5.06,6.66l5.65,7v-9.08c0-3.21-.11-3.38-3.33-3.5v-1.09h8v1.09c-2.22,0-2.42.49-2.44,3.79l-.29,15.65h-1.21l-1.81-2.27c-.92-1.15-1.83-2.29-2.75-3.42l-8-9.88v10.52c0,3.27.22,3.38,3.33,3.7v1.09Zm-111.89,0v-1.09c2.55-.17,2.55-.29,2.58-4.05V292.52l-7.09,15.59h-1.78L172,292.31l-.15,11.92c0,2,.23,2.36,2.38,2.53v1.09h-7v-1.09c1.63-.09,2.26-.32,2.38-1.69.06-.55.14-2.25.17-3.36l.29-8.5c0-.66,0-1.64,0-2.36,0-2-.41-2.15-2.21-2.18v-1.09h6.37L180.52,303l6.95-15.39h6.17v1.21c-2.41.14-2.44.4-2.41,3.56v8.35c0,1.38,0,3.1.11,4.14.12,1.49.69,1.78,2.3,1.92v1.09Zm10.86,0v-1.09c2-.26,2.38-.49,2.41-2.61v-10.8c0-4.22,0-4.33-2.41-4.68v-1.09H204v1.09c-2.38.23-2.38.35-2.38,4.68v8.18c0,.72,0,3,.08,3.59.15,1.24.72,1.53,2.3,1.64v1.09Zm52,0v-1.09c2-.26,2.39-.49,2.41-2.61v-10.8c0-4.22,0-4.33-2.41-4.68v-1.09h8.43v1.09c-2.39.23-2.39.35-2.39,4.68v8.18c0,.72,0,3,.09,3.59.14,1.24.72,1.53,2.3,1.64v1.09Zm-23.11,0v-1.09c2.3-.2,2.33-.69,2.33-2.64,0-.72,0-1.44,0-2.15v-8.5c0-1.32,0-2.64-.08-3.28-.12-1.2-.69-1.38-2.27-1.52v-1.09h8.68v1.09c-1.7.17-2.33.23-2.53,1.35a22.21,22.21,0,0,0-.17,3.36v2.8c1.75.09,3,.14,4.67.14s3.08-.05,4.8-.14v-3.4c0-3.71,0-3.85-2.81-4.11v-1.09H246v1.09c-2.35.29-2.35.32-2.35,4.16v8.56c0,.8,0,3.36.11,4,.14,1.07.75,1.27,2.24,1.41v1.09h-8.79v-1.09c2-.23,2.58-.29,2.76-1.69,0-.58,0-1.35,0-2.82v-3.72c-1.6,0-2.94-.14-4.6-.14s-3.12.06-4.87.14v3.72c0,4.22.09,4.22,2.7,4.51v1.09Zm-1.5-4.51a9.39,9.39,0,0,1-8.65,5.06c-6.1,0-10.06-4.51-10.06-10.43,0-5.48,3.36-10.88,10.2-10.88a9.85,9.85,0,0,1,6.68,2.44l1.4-1.26.1,6.14-.9.18a8.44,8.44,0,0,0-2.18-3.56,6,6,0,0,0-4.25-2c-3.66,0-6.55,3-6.55,8.23,0,4.46,2.37,8.65,7.07,8.65,3.54,0,4.87-2,5.94-3.5l1.2.91ZM286,291.58l-3,8.4h5.83l-2.85-8.4Zm1.82,16.27v-1.09c1.37-.09,2.44-.2,2.44-1.32a4.54,4.54,0,0,0-.23-1.21l-.61-2.07h-7.15l-.63,1.76a4,4,0,0,0-.26,1.26c0,1.44,1.53,1.52,2.76,1.58v1.09h-8.36v-1.09c2.13-.09,2.82-.52,3.59-2.64l5.49-15.05-.32-.49a11.42,11.42,0,0,0,4-1.86c.4,1.38.46,1.55.92,3l4.48,13.79c.8,2.44,1.18,3,3.33,3.27v1.09Z"/><path class="cls-4" d="M234.8,276.85c0,3.07,0,3.49,1.64,3.52v.75h-5.6v-.75c1.44-.11,1.59-.34,1.61-1.78,0-.55,0-1.17,0-1.72V272a25.06,25.06,0,0,0-.07-2.62c-.1-.74-.46-.87-1.56-1v-.72l6.07,0c3.3,0,4.35,1.57,4.35,3.43a3.75,3.75,0,0,1-2.64,3.54l2.37,4.13c.86,1.57,1.31,1.94,2.39,2.09v.45c-.28,0-.57,0-.87,0-2.52,0-3.57-.87-4.63-3.13l-.74-1.58c-.8-1.69-1.06-1.58-2.34-1.6v1.74Zm0-2.92a6.57,6.57,0,0,0,1.26.13,2.69,2.69,0,0,0,2.73-2.26c.08-1.56-.7-2.9-3.17-2.9a3.4,3.4,0,0,0-.82.08v4.95Zm-5.53,7.19a32.65,32.65,0,0,1,.29-3.48h-.65c-.46,2.4-1.8,2.28-3.74,2.28-1.78,0-2.14-.47-2.14-1.35v-3.74h1.44c1.65,0,2.12.14,2.12,1.64h.65V272h-.65c-.13,1.2-.38,1.59-2.1,1.59H223v-4.72h1.65c2.27,0,3.09.17,3.39,2h.61l-.07-3.18h-9.55v.71c1,.1,1.38.16,1.52.78a20.78,20.78,0,0,1,.11,2.43v4.71c0,.36,0,2,0,2.3,0,1.46-.21,1.59-1.59,1.73v.74Zm48.63,0v-.72c1.05-.12,1.45-.16,1.71-.42s.31-.65.33-2.11v-2.35L276.37,270c-1-1.44-1-1.48-2.28-1.55v-.74h7v.74c-1.41,0-2,.07-2,.72a3.14,3.14,0,0,0,.59,1.35l2.05,3.35,1.9-3.33a3.73,3.73,0,0,0,.53-1.37c0-.65-.55-.66-1.48-.72v-.74h5.24v.74c-1.35,0-1.75.44-3.28,2.94l-2.09,3.49v2.79c0,2.43,0,2.62,2,2.74v.72Zm-59.41-13.4v.72c-1.29.19-1.47.55-2.57,3.2l-4.08,9.74h-.72l-3.66-9.88c-.91-2.55-1-2.85-2.37-3.06v-.72h6.36v.72c-1.09,0-1.79.07-1.79.85a6.43,6.43,0,0,0,.46,1.83l2.33,6.81,2.73-7a5.3,5.3,0,0,0,.4-1.43c0-1-1-1-1.78-1v-.72Zm-45.42,0v.72c-1.78.13-1.78.19-1.8,3v3.15a7.14,7.14,0,0,0,.89,4.29A2.88,2.88,0,0,0,174.6,280a3.26,3.26,0,0,0,3.43-2.57,22.79,22.79,0,0,0,.39-5.16c0-.49,0-2.09,0-2.52-.07-1.22-.7-1.26-1.89-1.35v-.72h5.1v.72c-1.25,0-1.52.27-1.59,1.59,0,.33-.17,4.05-.19,4.62a16.29,16.29,0,0,1-.32,3c-.92,3.61-4.43,3.8-5.36,3.8a6.5,6.5,0,0,1-3.51-.95c-2-1.35-2-3.36-2-5.52v-3c0-1.44,0-2.09-.06-2.43-.11-.83-.53-1-1.53-1.06v-.72Zm91,13.4v-.57c1.24,0,1.58-.48,1.58-1.54v-9.87H264c-1.52,0-2.53-.06-2.64,2.33h-.7l.11-3.75H273l.11,3.75h-.7c-.12-2.39-1.12-2.33-2.64-2.33h-1.67V279c0,1.06.34,1.52,1.57,1.54v.57Zm-20.67-4.18.68-.07c.74,2.18,2,3.35,4,3.35,1.43,0,2.68-.6,2.68-2.05s-1.46-2.12-2.1-2.39-1.11-.38-1.64-.58c-1.1-.4-3.17-1.26-3.17-3.86s2-3.91,4.27-3.91a5.59,5.59,0,0,1,3.08.91l.82-.58.43,4-.66.13a4.7,4.7,0,0,0-.93-2,3.18,3.18,0,0,0-2.62-1.22c-1.43,0-2.26.68-2.26,1.74,0,1.6,1.57,2.13,3.07,2.62a10.16,10.16,0,0,1,1.94.78,3.9,3.9,0,0,1,1.94,3.42c0,2.31-1.9,4.23-4.73,4.23a6.06,6.06,0,0,1-3.48-1.06l-1.12-.82-.19-2.64Zm-60.8,4.18v-.72c1.1-.06,1.51-.08,1.67-.84s.24-8.84.26-10.23a2.55,2.55,0,0,0-1.93-.89v-.72h4c1.12,1.59,1.37,1.95,3.34,4.4l3.74,4.63v-6c0-2.13-.08-2.25-2.2-2.32v-.72h5.27v.72c-1.46,0-1.59.32-1.61,2.5L195,281.29h-.8l-1.19-1.5-1.82-2.26-5.3-6.53V278c0,2.16.15,2.24,2.2,2.45v.72Zm71.2,0v-.72c1.31-.18,1.57-.33,1.59-1.73v-7.14c0-2.79,0-2.86-1.59-3.09v-.72h5.56v.72c-1.58.15-1.58.23-1.58,3.09v5.41c0,.48,0,2,.06,2.38.1.81.48,1,1.52,1.08v.72Zm-55.58,0v-.72c1.31-.18,1.57-.33,1.59-1.73v-7.14c0-2.79,0-2.86-1.59-3.09v-.72h5.56v.72c-1.57.15-1.57.23-1.57,3.09v5.41c0,.48,0,2,0,2.38.1.81.48,1,1.52,1.08v.72Zm109.69-.65v.74h5.55v-.74c-1.39-.13-1.56-.27-1.6-1.73v-3.82h1.49c1.49,0,2.29.14,2.39,1.64h.64v-4.42h-.64c-.08,1.44-.48,1.59-2.11,1.59H311.9v-4.65a12.28,12.28,0,0,1,1.59-.07c2.62,0,3.46,0,3.82,2.09H318l-.21-3.29h-9.83v.72c1,.1,1.39.16,1.52.78a18.81,18.81,0,0,1,.11,2.43v4.71c0,.36,0,2,0,2.29,0,1.46-.21,1.6-1.59,1.73Zm-7.34-.15a3.33,3.33,0,0,0,2.65-1.66,7.15,7.15,0,0,0,1.09-4.53,6.42,6.42,0,0,0-1.52-4.26,3,3,0,0,0-4.76.07,6.33,6.33,0,0,0-1.39,4.31,7.14,7.14,0,0,0,1.22,4.49,3.33,3.33,0,0,0,2.71,1.58Zm6.69-5.83c0,4.63-3.16,7.06-6.71,7.06a6.76,6.76,0,0,1-6.94-7.08c0-3.66,2.45-7,6.76-6.94a6.66,6.66,0,0,1,6.89,7Z"/></g></g></svg>
