<svg xmlns="http://www.w3.org/2000/svg" xmlns:xlink="http://www.w3.org/1999/xlink" viewBox="0 0 485.27 452.12"><defs><style>.cls-1{isolation:isolate;}.cls-2{fill:none;}.cls-3{fill:url(#radial-gradient);}.cls-4{fill:url(#radial-gradient-2);}.cls-5{fill:url(#radial-gradient-3);}.cls-6{fill:url(#radial-gradient-4);}.cls-7{fill:url(#radial-gradient-5);}.cls-8{fill:url(#radial-gradient-6);}.cls-9{fill:url(#radial-gradient-7);}.cls-10{fill:url(#radial-gradient-8);}.cls-11{fill:url(#radial-gradient-9);}.cls-12{fill:url(#radial-gradient-10);}.cls-13{fill:url(#radial-gradient-11);}.cls-14{fill:url(#radial-gradient-12);}.cls-15{fill:url(#radial-gradient-13);}.cls-16{fill:url(#radial-gradient-14);}.cls-17{fill:url(#radial-gradient-15);}.cls-18{fill:url(#radial-gradient-16);}.cls-19{fill:url(#radial-gradient-17);}.cls-20{fill:url(#radial-gradient-18);}.cls-21{fill:url(#radial-gradient-19);}.cls-22{fill:url(#radial-gradient-20);}.cls-23{fill:url(#radial-gradient-21);}.cls-24{fill:url(#radial-gradient-22);}.cls-25{fill:url(#radial-gradient-23);}.cls-26{fill:url(#radial-gradient-24);}.cls-27{fill:url(#radial-gradient-25);}.cls-28{fill:url(#radial-gradient-26);}.cls-29{fill:url(#radial-gradient-27);}.cls-30{fill:url(#radial-gradient-28);}.cls-31{fill:url(#radial-gradient-29);}.cls-32{fill:url(#radial-gradient-30);}.cls-33{fill:url(#radial-gradient-31);}.cls-34{fill:url(#radial-gradient-32);}.cls-35{fill:url(#radial-gradient-33);}.cls-36{fill:url(#radial-gradient-34);}.cls-37{fill:url(#radial-gradient-35);}.cls-38{fill:url(#radial-gradient-36);}.cls-39{fill:url(#radial-gradient-37);}.cls-40{fill:url(#radial-gradient-38);}.cls-41{fill:url(#radial-gradient-39);}.cls-42{fill:url(#radial-gradient-40);}.cls-43{fill:url(#radial-gradient-41);}.cls-44{fill:url(#radial-gradient-42);}.cls-45{fill:url(#radial-gradient-43);}.cls-46{fill:url(#radial-gradient-44);}.cls-47{fill:url(#radial-gradient-45);}.cls-48{fill:url(#radial-gradient-46);}.cls-49{fill:url(#radial-gradient-47);}.cls-50{fill:url(#radial-gradient-48);}.cls-51{fill:url(#radial-gradient-49);}.cls-52{fill:url(#radial-gradient-50);}.cls-53{fill:url(#radial-gradient-51);}.cls-54{fill:url(#radial-gradient-52);}.cls-55{fill:url(#radial-gradient-53);}.cls-56{fill:url(#radial-gradient-54);}.cls-57{fill:#dbbf85;}.cls-58{fill:url(#radial-gradient-55);}.cls-59{fill:url(#radial-gradient-56);}.cls-60{fill:url(#radial-gradient-57);}.cls-61{fill:url(#radial-gradient-58);}.cls-62{fill:url(#radial-gradient-59);}.cls-63{fill:url(#radial-gradient-60);}.cls-64{fill:url(#radial-gradient-61);}.cls-65{fill:url(#radial-gradient-62);}.cls-66{fill:url(#radial-gradient-63);}.cls-67{fill:url(#radial-gradient-64);}.cls-68{fill:url(#radial-gradient-65);}.cls-69{fill:url(#radial-gradient-66);}.cls-70{fill:url(#radial-gradient-67);}.cls-71{fill:url(#radial-gradient-68);}.cls-72{fill:url(#radial-gradient-69);}.cls-73{fill:url(#radial-gradient-70);}.cls-74{fill:url(#radial-gradient-71);}.cls-75{fill:url(#radial-gradient-72);}.cls-76{fill:url(#radial-gradient-73);}.cls-77{fill:url(#radial-gradient-74);}.cls-78{fill:url(#radial-gradient-75);}.cls-79{fill:url(#radial-gradient-76);}.cls-80{fill:url(#radial-gradient-77);}.cls-81{fill:url(#radial-gradient-78);}.cls-82{fill:url(#radial-gradient-79);}.cls-83{fill:url(#radial-gradient-80);}.cls-84{fill:url(#radial-gradient-81);}.cls-85{fill:url(#radial-gradient-82);}.cls-86{fill:url(#radial-gradient-83);}.cls-87{fill:url(#radial-gradient-84);}.cls-88{fill:url(#radial-gradient-85);}.cls-89{fill:url(#radial-gradient-86);}.cls-90{fill:url(#radial-gradient-87);}.cls-91{fill:url(#radial-gradient-88);}.cls-92{fill:url(#radial-gradient-89);}.cls-93{fill:url(#radial-gradient-90);}.cls-94{fill:url(#radial-gradient-91);}.cls-95{fill:url(#radial-gradient-92);}.cls-96{fill:url(#radial-gradient-93);}.cls-97{fill:url(#radial-gradient-94);}.cls-98{fill:url(#radial-gradient-95);}.cls-99{fill:url(#radial-gradient-96);}.cls-100{fill:url(#radial-gradient-97);}.cls-101{fill:url(#radial-gradient-98);}.cls-102{fill:url(#radial-gradient-99);}.cls-103{fill:url(#radial-gradient-100);}.cls-104{fill:url(#radial-gradient-101);}.cls-105{fill:url(#radial-gradient-102);}.cls-106{fill:url(#radial-gradient-103);}.cls-107{fill:url(#radial-gradient-104);}.cls-108{fill:url(#radial-gradient-105);}.cls-109{fill:url(#radial-gradient-106);}.cls-110{fill:url(#radial-gradient-107);}.cls-111{fill:url(#radial-gradient-108);}.cls-112{fill:url(#radial-gradient-109);}.cls-113{fill:url(#radial-gradient-110);}.cls-114{fill:url(#radial-gradient-111);}.cls-115{fill:url(#radial-gradient-112);}.cls-116{fill:url(#radial-gradient-113);}.cls-117{fill:url(#radial-gradient-114);}.cls-118{fill:url(#radial-gradient-115);}.cls-119{fill:url(#radial-gradient-116);}.cls-120{fill:url(#radial-gradient-117);}.cls-121{fill:url(#radial-gradient-118);}.cls-122{fill:url(#radial-gradient-119);}.cls-123{fill:url(#radial-gradient-120);}.cls-124{fill:url(#radial-gradient-121);}.cls-125{fill:url(#radial-gradient-122);}.cls-126{fill:url(#radial-gradient-123);}.cls-127{fill:url(#radial-gradient-124);}.cls-128{fill:url(#radial-gradient-125);}.cls-129{fill:url(#radial-gradient-126);}.cls-130{fill:url(#radial-gradient-127);}.cls-131{fill:url(#radial-gradient-128);}.cls-132{fill:url(#radial-gradient-129);}.cls-133{fill:url(#radial-gradient-130);}.cls-134,.cls-146{fill:#fff;}.cls-134{stroke:#ad8400;stroke-width:0.95px;}.cls-135{fill:url(#radial-gradient-131);}.cls-136,.cls-137,.cls-138,.cls-139,.cls-140,.cls-141,.cls-142,.cls-143,.cls-144,.cls-145{stroke:#dbe0ee;stroke-width:0.15px;}.cls-136{fill:url(#radial-gradient-132);}.cls-137{fill:url(#radial-gradient-133);}.cls-138{fill:url(#radial-gradient-134);}.cls-139{fill:url(#radial-gradient-135);}.cls-140{fill:url(#radial-gradient-136);}.cls-141{fill:url(#radial-gradient-137);}.cls-142{fill:url(#radial-gradient-138);}.cls-143{fill:#90a6ce;}.cls-144{fill:#99add2;}.cls-145{fill:#bcc8e1;}.cls-146{stroke:#005699;stroke-width:2px;}.cls-147{fill:#ad8400;}.cls-148{opacity:0.27;mix-blend-mode:color-burn;fill:url(#New_Gradient_Swatch_1);}</style><radialGradient id="radial-gradient" cx="172.21" cy="127.71" r="239.61" gradientUnits="userSpaceOnUse"><stop offset="0" stop-color="#e3cb9d"/><stop offset="1" stop-color="#ad8400"/></radialGradient><radialGradient id="radial-gradient-2" cx="172.21" cy="127.72" r="239.59" xlink:href="#radial-gradient"/><radialGradient id="radial-gradient-3" cx="172.21" cy="127.71" r="239.61" xlink:href="#radial-gradient"/><radialGradient id="radial-gradient-4" cx="172.21" cy="127.72" r="239.59" xlink:href="#radial-gradient"/><radialGradient id="radial-gradient-5" cx="172.21" cy="127.72" r="239.58" xlink:href="#radial-gradient"/><radialGradient id="radial-gradient-6" cx="172.21" cy="127.72" r="239.59" xlink:href="#radial-gradient"/><radialGradient id="radial-gradient-7" cx="172.21" cy="127.72" r="239.58" xlink:href="#radial-gradient"/><radialGradient id="radial-gradient-8" cx="172.21" cy="127.72" r="239.59" xlink:href="#radial-gradient"/><radialGradient id="radial-gradient-9" cx="172.21" cy="127.72" r="239.58" xlink:href="#radial-gradient"/><radialGradient id="radial-gradient-10" cx="172.21" cy="127.72" r="239.59" xlink:href="#radial-gradient"/><radialGradient id="radial-gradient-11" cx="172.22" cy="127.71" r="239.59" xlink:href="#radial-gradient"/><radialGradient id="radial-gradient-12" cx="172.21" cy="127.72" r="239.59" xlink:href="#radial-gradient"/><radialGradient id="radial-gradient-13" cx="172.22" cy="127.71" r="239.6" xlink:href="#radial-gradient"/><radialGradient id="radial-gradient-14" cx="172.21" cy="127.71" r="239.6" xlink:href="#radial-gradient"/><radialGradient id="radial-gradient-15" cx="172.22" cy="127.71" r="239.59" xlink:href="#radial-gradient"/><radialGradient id="radial-gradient-16" cx="172.21" cy="127.71" r="239.6" xlink:href="#radial-gradient"/><radialGradient id="radial-gradient-17" cx="172.21" cy="127.71" r="239.6" xlink:href="#radial-gradient"/><radialGradient id="radial-gradient-18" cx="172.21" cy="127.71" r="239.6" xlink:href="#radial-gradient"/><radialGradient id="radial-gradient-19" cx="172.21" cy="127.71" r="239.6" xlink:href="#radial-gradient"/><radialGradient id="radial-gradient-20" cx="172.22" cy="127.72" r="239.58" xlink:href="#radial-gradient"/><radialGradient id="radial-gradient-21" cx="172.21" cy="127.71" r="239.6" xlink:href="#radial-gradient"/><radialGradient id="radial-gradient-22" cx="172.22" cy="127.72" r="239.58" xlink:href="#radial-gradient"/><radialGradient id="radial-gradient-23" cx="172.2" cy="127.72" r="239.6" xlink:href="#radial-gradient"/><radialGradient id="radial-gradient-24" cx="172.22" cy="127.72" r="239.58" xlink:href="#radial-gradient"/><radialGradient id="radial-gradient-25" cx="172.2" cy="127.72" r="239.6" xlink:href="#radial-gradient"/><radialGradient id="radial-gradient-26" cx="172.21" cy="127.72" r="239.59" gradientUnits="userSpaceOnUse"><stop offset="0" stop-color="#eedec0"/><stop offset="1" stop-color="#ad8400"/></radialGradient><radialGradient id="radial-gradient-27" cx="172.21" cy="127.71" r="239.6" xlink:href="#radial-gradient-26"/><radialGradient id="radial-gradient-28" cx="172.21" cy="127.72" r="239.59" xlink:href="#radial-gradient"/><radialGradient id="radial-gradient-29" cx="172.21" cy="127.72" r="239.59" xlink:href="#radial-gradient-26"/><radialGradient id="radial-gradient-30" cx="172.21" cy="127.72" r="239.58" xlink:href="#radial-gradient"/><radialGradient id="radial-gradient-31" cx="172.21" cy="127.72" r="239.59" xlink:href="#radial-gradient-26"/><radialGradient id="radial-gradient-32" cx="172.21" cy="127.72" r="239.58" xlink:href="#radial-gradient"/><radialGradient id="radial-gradient-33" cx="172.21" cy="127.72" r="239.59" xlink:href="#radial-gradient-26"/><radialGradient id="radial-gradient-34" cx="172.21" cy="127.72" r="239.59" xlink:href="#radial-gradient"/><radialGradient id="radial-gradient-35" cx="172.21" cy="127.72" r="239.59" xlink:href="#radial-gradient-26"/><radialGradient id="radial-gradient-36" cx="172.21" cy="127.72" r="239.59" xlink:href="#radial-gradient"/><radialGradient id="radial-gradient-37" cx="172.21" cy="127.72" r="239.59" xlink:href="#radial-gradient-26"/><radialGradient id="radial-gradient-38" cx="172.22" cy="127.75" r="239.54" xlink:href="#radial-gradient"/><radialGradient id="radial-gradient-39" cx="172.22" cy="127.74" r="239.55" xlink:href="#radial-gradient"/><radialGradient id="radial-gradient-40" cx="172.22" cy="127.74" r="239.55" xlink:href="#radial-gradient-26"/><radialGradient id="radial-gradient-41" cx="172.22" cy="127.71" r="239.6" xlink:href="#radial-gradient"/><radialGradient id="radial-gradient-42" cx="172.21" cy="127.72" r="239.59" xlink:href="#radial-gradient-26"/><radialGradient id="radial-gradient-43" cx="172.22" cy="127.68" r="239.63" xlink:href="#radial-gradient"/><radialGradient id="radial-gradient-44" cx="172.21" cy="127.69" r="239.63" xlink:href="#radial-gradient-26"/><radialGradient id="radial-gradient-45" cx="172.21" cy="127.71" r="239.6" xlink:href="#radial-gradient"/><radialGradient id="radial-gradient-46" cx="172.21" cy="127.72" r="239.59" xlink:href="#radial-gradient-26"/><radialGradient id="radial-gradient-47" cx="172.21" cy="127.71" r="239.6" xlink:href="#radial-gradient"/><radialGradient id="radial-gradient-48" cx="172.21" cy="127.72" r="239.59" xlink:href="#radial-gradient-26"/><radialGradient id="radial-gradient-49" cx="172.21" cy="127.71" r="239.6" xlink:href="#radial-gradient"/><radialGradient id="radial-gradient-50" cx="172.21" cy="127.72" r="239.59" xlink:href="#radial-gradient-26"/><radialGradient id="radial-gradient-51" cx="172.21" cy="127.71" r="239.6" xlink:href="#radial-gradient"/><radialGradient id="radial-gradient-52" cx="172.21" cy="127.72" r="239.59" xlink:href="#radial-gradient-26"/><radialGradient id="radial-gradient-53" cx="172.22" cy="127.72" r="239.58" xlink:href="#radial-gradient"/><radialGradient id="radial-gradient-54" cx="172.21" cy="127.72" r="239.59" xlink:href="#radial-gradient-26"/><radialGradient id="radial-gradient-55" cx="172.21" cy="127.72" r="239.59" xlink:href="#radial-gradient"/><radialGradient id="radial-gradient-56" cx="172.21" cy="127.71" r="239.59" xlink:href="#radial-gradient"/><radialGradient id="radial-gradient-57" cx="172.21" cy="127.71" r="239.6" xlink:href="#radial-gradient"/><radialGradient id="radial-gradient-58" cx="172.21" cy="127.72" r="239.59" xlink:href="#radial-gradient"/><radialGradient id="radial-gradient-59" cx="172.22" cy="127.72" r="239.58" xlink:href="#radial-gradient"/><radialGradient id="radial-gradient-60" cx="172.2" cy="127.72" r="239.6" xlink:href="#radial-gradient"/><radialGradient id="radial-gradient-61" cx="172.22" cy="127.71" r="239.59" xlink:href="#radial-gradient"/><radialGradient id="radial-gradient-62" cx="172.21" cy="127.71" r="239.59" xlink:href="#radial-gradient"/><radialGradient id="radial-gradient-63" cx="172.2" cy="127.7" r="239.63" xlink:href="#radial-gradient"/><radialGradient id="radial-gradient-64" cx="172.19" cy="127.7" r="239.64" xlink:href="#radial-gradient"/><radialGradient id="radial-gradient-65" cx="172.21" cy="127.72" r="239.59" xlink:href="#radial-gradient"/><radialGradient id="radial-gradient-66" cx="172.21" cy="127.72" r="239.6" xlink:href="#radial-gradient"/><radialGradient id="radial-gradient-67" cx="172.21" cy="127.72" r="239.59" xlink:href="#radial-gradient-26"/><radialGradient id="radial-gradient-68" cx="172.21" cy="127.73" r="239.56" xlink:href="#radial-gradient-26"/><radialGradient id="radial-gradient-69" cx="172.21" cy="127.72" r="239.59" xlink:href="#radial-gradient-26"/><radialGradient id="radial-gradient-70" cx="172.21" cy="127.72" r="239.59" xlink:href="#radial-gradient-26"/><radialGradient id="radial-gradient-71" cx="172.21" cy="127.72" r="239.59" xlink:href="#radial-gradient-26"/><radialGradient id="radial-gradient-72" cx="172.21" cy="127.72" r="239.59" xlink:href="#radial-gradient"/><radialGradient id="radial-gradient-73" cx="172.21" cy="127.72" r="239.59" xlink:href="#radial-gradient-26"/><radialGradient id="radial-gradient-74" cx="172.21" cy="127.72" r="239.6" xlink:href="#radial-gradient"/><radialGradient id="radial-gradient-75" cx="172.21" cy="127.72" r="239.59" xlink:href="#radial-gradient-26"/><radialGradient id="radial-gradient-76" cx="172.21" cy="127.71" r="239.6" xlink:href="#radial-gradient"/><radialGradient id="radial-gradient-77" cx="172.21" cy="127.72" r="239.59" xlink:href="#radial-gradient-26"/><radialGradient id="radial-gradient-78" cx="172.21" cy="127.71" r="239.59" xlink:href="#radial-gradient"/><radialGradient id="radial-gradient-79" cx="172.21" cy="127.72" r="239.59" xlink:href="#radial-gradient-26"/><radialGradient id="radial-gradient-80" cx="172.21" cy="127.71" r="239.6" xlink:href="#radial-gradient"/><radialGradient id="radial-gradient-81" cx="172.21" cy="127.72" r="239.59" xlink:href="#radial-gradient-26"/><radialGradient id="radial-gradient-82" cx="172.21" cy="127.72" r="239.6" xlink:href="#radial-gradient"/><radialGradient id="radial-gradient-83" cx="172.21" cy="127.72" r="239.59" xlink:href="#radial-gradient-26"/><radialGradient id="radial-gradient-84" cx="172.21" cy="127.71" r="239.6" xlink:href="#radial-gradient"/><radialGradient id="radial-gradient-85" cx="172.21" cy="127.71" r="239.6" xlink:href="#radial-gradient"/><radialGradient id="radial-gradient-86" cx="172.21" cy="127.72" r="239.59" xlink:href="#radial-gradient-26"/><radialGradient id="radial-gradient-87" cx="172.21" cy="127.71" r="239.61" xlink:href="#radial-gradient"/><radialGradient id="radial-gradient-88" cx="172.21" cy="127.72" r="239.59" xlink:href="#radial-gradient-26"/><radialGradient id="radial-gradient-89" cx="172.21" cy="127.71" r="239.61" xlink:href="#radial-gradient"/><radialGradient id="radial-gradient-90" cx="172.21" cy="127.72" r="239.59" xlink:href="#radial-gradient-26"/><radialGradient id="radial-gradient-91" cx="172.21" cy="127.72" r="239.59" xlink:href="#radial-gradient"/><radialGradient id="radial-gradient-92" cx="172.21" cy="127.72" r="239.59" xlink:href="#radial-gradient-26"/><radialGradient id="radial-gradient-93" cx="172.22" cy="127.7" r="239.63" xlink:href="#radial-gradient"/><radialGradient id="radial-gradient-94" cx="172.21" cy="127.71" r="239.61" xlink:href="#radial-gradient"/><radialGradient id="radial-gradient-95" cx="172.21" cy="127.71" r="239.61" xlink:href="#radial-gradient-26"/><radialGradient id="radial-gradient-96" cx="172.22" cy="127.72" r="239.58" xlink:href="#radial-gradient"/><radialGradient id="radial-gradient-97" cx="172.21" cy="127.72" r="239.59" xlink:href="#radial-gradient-26"/><radialGradient id="radial-gradient-98" cx="172.2" cy="127.72" r="239.6" xlink:href="#radial-gradient"/><radialGradient id="radial-gradient-99" cx="172.21" cy="127.72" r="239.59" xlink:href="#radial-gradient-26"/><radialGradient id="radial-gradient-100" cx="172.2" cy="127.72" r="239.6" xlink:href="#radial-gradient"/><radialGradient id="radial-gradient-101" cx="172.21" cy="127.72" r="239.59" xlink:href="#radial-gradient-26"/><radialGradient id="radial-gradient-102" cx="172.22" cy="127.71" r="239.58" xlink:href="#radial-gradient"/><radialGradient id="radial-gradient-103" cx="172.21" cy="127.72" r="239.59" xlink:href="#radial-gradient-26"/><radialGradient id="radial-gradient-104" cx="172.22" cy="127.71" r="239.58" xlink:href="#radial-gradient"/><radialGradient id="radial-gradient-105" cx="172.22" cy="127.72" r="239.59" xlink:href="#radial-gradient-26"/><radialGradient id="radial-gradient-106" cx="172.18" cy="127.73" r="239.65" xlink:href="#radial-gradient"/><radialGradient id="radial-gradient-107" cx="172.18" cy="127.73" r="239.65" xlink:href="#radial-gradient-26"/><radialGradient id="radial-gradient-108" cx="172.21" cy="127.71" r="239.59" xlink:href="#radial-gradient"/><radialGradient id="radial-gradient-109" cx="172.21" cy="127.72" r="239.59" xlink:href="#radial-gradient-26"/><radialGradient id="radial-gradient-110" cx="172.21" cy="127.71" r="239.59" xlink:href="#radial-gradient"/><radialGradient id="radial-gradient-111" cx="172.21" cy="127.72" r="239.59" xlink:href="#radial-gradient-26"/><radialGradient id="radial-gradient-112" cx="172.21" cy="127.71" r="239.6" xlink:href="#radial-gradient"/><radialGradient id="radial-gradient-113" cx="172.21" cy="127.71" r="239.61" xlink:href="#radial-gradient"/><radialGradient id="radial-gradient-114" cx="172.21" cy="127.71" r="239.6" xlink:href="#radial-gradient-26"/><radialGradient id="radial-gradient-115" cx="172.21" cy="127.72" r="239.6" xlink:href="#radial-gradient"/><radialGradient id="radial-gradient-116" cx="172.21" cy="127.72" r="239.59" xlink:href="#radial-gradient-26"/><radialGradient id="radial-gradient-117" cx="172.21" cy="127.72" r="239.6" xlink:href="#radial-gradient"/><radialGradient id="radial-gradient-118" cx="172.22" cy="127.72" r="239.59" xlink:href="#radial-gradient-26"/><radialGradient id="radial-gradient-119" cx="172.21" cy="127.71" r="239.6" xlink:href="#radial-gradient"/><radialGradient id="radial-gradient-120" cx="172.21" cy="127.72" r="239.59" xlink:href="#radial-gradient-26"/><radialGradient id="radial-gradient-121" cx="172.21" cy="127.71" r="239.6" xlink:href="#radial-gradient"/><radialGradient id="radial-gradient-122" cx="172.2" cy="127.71" r="239.62" xlink:href="#radial-gradient"/><radialGradient id="radial-gradient-123" cx="172.21" cy="127.72" r="239.6" xlink:href="#radial-gradient-26"/><radialGradient id="radial-gradient-124" cx="172.21" cy="127.72" r="239.61" xlink:href="#radial-gradient"/><radialGradient id="radial-gradient-125" cx="172.21" cy="127.72" r="239.59" xlink:href="#radial-gradient-26"/><radialGradient id="radial-gradient-126" cx="172.21" cy="127.72" r="239.6" xlink:href="#radial-gradient"/><radialGradient id="radial-gradient-127" cx="172.21" cy="127.72" r="239.59" xlink:href="#radial-gradient-26"/><radialGradient id="radial-gradient-128" cx="172.22" cy="127.72" r="239.56" xlink:href="#radial-gradient"/><radialGradient id="radial-gradient-129" cx="172.22" cy="127.72" r="239.57" xlink:href="#radial-gradient"/><radialGradient id="radial-gradient-130" cx="172.22" cy="127.72" r="239.56" xlink:href="#radial-gradient-26"/><radialGradient id="radial-gradient-131" cx="209.67" cy="196.34" r="115.56" gradientUnits="userSpaceOnUse"><stop offset="0" stop-color="#0fb3e8"/><stop offset="0.52" stop-color="#0781bd"/><stop offset="1" stop-color="#005699"/></radialGradient><radialGradient id="radial-gradient-132" cx="212.45" cy="195.85" r="128.2" gradientUnits="userSpaceOnUse"><stop offset="0" stop-color="#cdd5e9"/><stop offset="0.08" stop-color="#c4cee5"/><stop offset="0.49" stop-color="#9aaed2"/><stop offset="0.81" stop-color="#809ac6"/><stop offset="1" stop-color="#7693c2"/></radialGradient><radialGradient id="radial-gradient-133" cx="212.45" cy="195.85" r="128.2" xlink:href="#radial-gradient-132"/><radialGradient id="radial-gradient-134" cx="212.45" cy="195.85" r="128.2" xlink:href="#radial-gradient-132"/><radialGradient id="radial-gradient-135" cx="212.45" cy="195.85" r="128.2" xlink:href="#radial-gradient-132"/><radialGradient id="radial-gradient-136" cx="212.45" cy="195.86" r="128.2" xlink:href="#radial-gradient-132"/><radialGradient id="radial-gradient-137" cx="212.45" cy="198.13" r="127.09" xlink:href="#radial-gradient-132"/><radialGradient id="radial-gradient-138" cx="212.45" cy="195.85" r="128.2" xlink:href="#radial-gradient-132"/><radialGradient id="New_Gradient_Swatch_1" cx="242.64" cy="226.06" fx="224.46674247594373" fy="179.06478424186344" r="82.25" gradientUnits="userSpaceOnUse"><stop offset="0" stop-color="#0fb3e8"/><stop offset="0.24" stop-color="#148eb6"/><stop offset="0.76" stop-color="#1f3f4b"/><stop offset="1" stop-color="#231f20"/></radialGradient></defs><g class="cls-1"><g id="Layer_2" data-name="Layer 2"><g id="Layer_1-2" data-name="Layer 1"><rect class="cls-2" width="485.27" height="452.12"/><path class="cls-2" d="M282.78,303.74c.8,2.5,1.42,5.72,4,6.83l1.59.43a30.55,30.55,0,0,0,8.67-4.35c2.68-2.17,6.12-5,6.93-8.19.09-2.36-1.76-3.91-3.48-5.31a91.35,91.35,0,0,0-19.43-10.45l-.33.22C280.28,289.93,281.72,296.76,282.78,303.74Z"/><path class="cls-2" d="M325.92,252.47c2.33,1.2,5.05,3,7.65,2l1.43-.82a26.6,26.6,0,0,0,2.74-7.77c0-.22.07-.43.09-.66.36-3.51,1-8.45-.81-11.5-1.6-1.73-4-1.51-6.22-1.29q-1.28.23-2.52.48A131,131,0,0,1,314.2,243.6C317.87,246.79,321.93,249.54,325.92,252.47Z"/><path class="cls-2" d="M309.3,282.62c1.7,2,3.51,4.74,6.31,4.77l1.63-.21a28.65,28.65,0,0,0,6-6.81l.17-.29c1.68-3.11,4.16-7.43,3.65-10.93-.81-2.22-3.12-2.94-5.25-3.58A91,91,0,0,0,300,263.36l-.56.85C301.73,270.83,305.66,276.59,309.3,282.62Z"/><path class="cls-2" d="M174.79,246c-2,1.91-3.86,4.17-5.82,6.37-.64,2.14-4.37,4.15-1.91,6.42a66.33,66.33,0,0,0,15.91.84,68.36,68.36,0,0,1-5.28-11.91C176.71,247.13,175.75,246.55,174.79,246Z"/><path class="cls-2" d="M284.9,279.89c3.11,1.84,6.8,2.86,10.49,4.16,2.22-.23,5.51,2.44,6.67-.7a67,67,0,0,0-5.43-15.24A69.18,69.18,0,0,1,284.9,279.89Z"/><path class="cls-2" d="M234.7,294c.91,3.48,2.77,6.79,4.46,10.28,1.73,1.4,2.16,5.62,5.2,4.22A66.35,66.35,0,0,0,251.29,294a68.6,68.6,0,0,1-8.66.55A69.34,69.34,0,0,1,234.7,294Z"/><path class="cls-2" d="M188.91,268.46c-1.78,3.07-2.79,6.69-4.06,10.3.23,2.22-2.44,5.52.7,6.67a66.74,66.74,0,0,0,15.07-5.34A69.28,69.28,0,0,1,188.91,268.46Z"/><path class="cls-2" d="M215.89,309.22c-1.2,2.33-3,5-2,7.65l.81,1.43c3.06,1.79,6.58,2.49,9.84,3.2,3.4.35,7.72.72,10.48-.92,1.74-1.6,1.52-4,1.3-6.22a91.33,91.33,0,0,0-6.32-21l-.95-.18C223.84,297.77,220.05,303.57,215.89,309.22Z"/><path class="cls-2" d="M155.67,232.83c-2.61-.21-5.82-.87-7.83,1.09l-1,1.3c-.53,3.82.34,7.65,1,11.18.94,3.08,2.23,6.62,4.56,8.36,2.14,1,4.28-.14,6.24-1.19a92.23,92.23,0,0,0,12.78-9.76,130.22,130.22,0,0,1-14-10.57Z"/><path class="cls-2" d="M165,265.74c-2.5.8-5.72,1.43-6.82,4l-.43,1.59c.93,3.56,3,6.64,4.9,9.54,2.12,2.6,4.82,5.72,7.83,6.48,2.36.09,3.91-1.76,5.31-3.48a91.34,91.34,0,0,0,10.36-19.23c-.22-.32-.44-.64-.65-1C178.56,263.29,171.84,264.7,165,265.74Z"/><path class="cls-2" d="M181.21,249.64a65.8,65.8,0,0,0,122.85,0,130.5,130.5,0,0,1-122.85,0Z"/><path class="cls-2" d="M250,313.15c-.22,2.61-.87,5.83,1.08,7.83l1.3,1a30.69,30.69,0,0,0,9.78-.72c3.32-1,7.64-2.28,9.62-4.93,1-2.14-.14-4.29-1.18-6.25a91.49,91.49,0,0,0-13.92-17l-.64.13C253,299.46,251.69,306.31,250,313.15Z"/><path class="cls-2" d="M186.28,292.68c-2,1.7-4.74,3.51-4.77,6.31l.2,1.63c2.26,3,5.43,5,8.3,7,2.86,1.52,6.31,3.15,9.21,2.72,2.21-.81,2.93-3.12,3.57-5.25A91.3,91.3,0,0,0,205,283.22l-.5-.32C198,285.18,192.25,289.07,186.28,292.68Z"/><path class="cls-2" d="M302.46,259.3c3.55.49,7.3,0,11.15-.18,2-1.07,6,.15,5.89-3.2a67.86,67.86,0,0,0-8.76-10.12c-1,.65-2.1,1.28-3.16,1.89A67.76,67.76,0,0,1,302.46,259.3Z"/><path class="cls-2" d="M209.24,296.91c1.07,2-.15,6,3.2,5.89A66.46,66.46,0,0,0,224.38,292a68,68,0,0,1-15.31-6.32C208.57,289.27,209,293,209.24,296.91Z"/><path class="cls-2" d="M269.38,299.73c2.14.64,4.15,4.37,6.42,1.91a66.43,66.43,0,0,0,.82-16.17,67.92,67.92,0,0,1-15.31,6.45C263.48,294.8,266.48,297.15,269.38,299.73Z"/><path class="cls-3" d="M146.62,242c.17.8.36,1.6.6,2.4.19.61.38,1.28.59,2-.63-3.53-1.5-7.36-1-11.18l1-1.3c2-2,5.22-1.3,7.83-1.09l1.7.41a131,131,0,0,1-17.17-18c-.06.15-.13.3-.19.44-4,6.07-10.23,7.59-16.86,7.38,0,2,0,4.29,0,5.91,7.43-.43,15.09,2.11,18.5,9.71.68,1.8,1.33,3.62,1.92,5.46-.07-.58-.14-1.17-.22-1.75Z"/><path class="cls-4" d="M160.26,277.8c.46.67,1,1.34,1.48,2l.87,1.09c-1.86-2.9-4-6-4.9-9.54l.43-1.59c1.1-2.57,4.32-3.2,6.82-4,6.88-1,13.6-2.45,20.5-2.07q-1.32-2-2.49-4.07a66.33,66.33,0,0,1-15.91-.84c-2.46-2.27,1.27-4.28,1.91-6.42,2-2.2,3.79-4.46,5.82-6.37-1.15-.7-2.28-1.43-3.4-2.16a92.23,92.23,0,0,1-12.78,9.76c-2,1.05-4.1,2.17-6.24,1.19-2.33-1.74-3.62-5.28-4.56-8.36l.21,1.22-3.21.95c-.37-1.5-.81-3-1.27-4.42a90.06,90.06,0,0,1,.39,11.75c-1.38,7.15-6.55,10.93-12.76,13.27.72,1.81,1.61,4,2.24,5.47,6.69-3.24,14.74-3.82,20.8,1.9,1.43,1.5,2.81,3,4.14,4.64-.32-.6-.66-1.2-1-1.79Z"/><path class="cls-5" d="M148,247.62l-.21-1.22c-.21-.68-.4-1.35-.59-2-.24-.8-.43-1.6-.6-2.4l-3.3.36c.08.58.15,1.17.22,1.75.46,1.46.9,2.92,1.27,4.42Z"/><path class="cls-6" d="M148,247.62l-.21-1.22c-.21-.68-.4-1.35-.59-2-.24-.8-.43-1.6-.6-2.4l-3.3.36c.08.58.15,1.17.22,1.75.46,1.46.9,2.92,1.27,4.42Z"/><path class="cls-7" d="M186.16,305.43c.69.44,1.38.87,2.12,1.27l1.73.93c-2.87-2-6-4-8.3-7l-.2-1.63c0-2.8,2.76-4.61,4.77-6.31,6-3.61,11.68-7.5,18.22-9.78-1.32-.9-2.62-1.83-3.88-2.81a66.74,66.74,0,0,1-15.07,5.34c-3.14-1.15-.47-4.45-.7-6.67,1.27-3.61,2.28-7.23,4.06-10.3q-1.47-1.86-2.8-3.82a91.34,91.34,0,0,1-10.36,19.23c-1.4,1.72-2.95,3.57-5.31,3.48-3-.76-5.71-3.88-7.83-6.48.32.49.64,1,.94,1.47l-2.61,2.1c-.83-1.12-1.7-2.2-2.59-3.26a89.92,89.92,0,0,1,4.73,10.45c1.46,7.14-1.87,12.61-6.71,17.14,1.36,1.4,3,3.06,4.16,4.2,4.95-5.55,12.16-9.17,19.95-6.2,1.73.77,3.45,1.59,5.14,2.46-.51-.41-1-.82-1.55-1.21Z"/><path class="cls-8" d="M163.55,282.34c-.3-.48-.62-1-.94-1.47l-.87-1.09c-.53-.64-1-1.31-1.48-2l-2.92,1.59c.35.59.69,1.19,1,1.79.89,1.06,1.76,2.14,2.59,3.26Z"/><path class="cls-9" d="M163.55,282.34c-.3-.48-.62-1-.94-1.47l-.87-1.09c-.53-.64-1-1.31-1.48-2l-2.92,1.59c.35.59.69,1.19,1,1.79.89,1.06,1.76,2.14,2.59,3.26Z"/><path class="cls-10" d="M221.09,321c.8.15,1.61.28,2.45.37l1,.11c-3.26-.71-6.78-1.41-9.84-3.2l-.81-1.43c-1-2.6.79-5.32,2-7.65,4.16-5.65,8-11.45,13.17-16.07-1.58-.32-3.14-.69-4.68-1.12a66.46,66.46,0,0,1-11.94,10.77c-3.35.13-2.13-3.93-3.2-5.89-.21-3.87-.67-7.64-.17-11.2-1.39-.78-2.74-1.61-4.07-2.49a91.3,91.3,0,0,1-2.21,21.88c-.64,2.13-1.36,4.44-3.57,5.25-2.9.43-6.35-1.2-9.21-2.72l1.31.93-1.6,2.93c-1.35-.81-2.72-1.55-4.1-2.26a88.06,88.06,0,0,1,8.43,7.9c4.08,6,3.1,12.36.37,18.4,1.79.78,4,1.67,5.45,2.29,2.44-7,7.73-13.13,16-13.37,2.13.06,4.26.17,6.38.37-.71-.22-1.42-.42-2.15-.61Z"/><path class="cls-11" d="M191.32,308.56l-1.31-.93-1.73-.93c-.74-.4-1.43-.83-2.12-1.27L184.07,308c.53.39,1,.8,1.55,1.21,1.38.71,2.75,1.45,4.1,2.26Z"/><path class="cls-12" d="M191.32,308.56l-1.31-.93-1.73-.93c-.74-.4-1.43-.83-2.12-1.27L184.07,308c.53.39,1,.8,1.55,1.21,1.38.71,2.75,1.45,4.1,2.26Z"/><path class="cls-13" d="M259.07,322.08c.8-.17,1.61-.36,2.41-.6l.69-.21a30.69,30.69,0,0,1-9.78.72l-1.3-1c-2-2-1.3-5.22-1.08-7.83,1.68-6.84,3-13.69,6-20-1.56.31-3.15.57-4.76.77a66.35,66.35,0,0,1-6.93,14.59c-3,1.4-3.47-2.82-5.2-4.22-1.69-3.49-3.55-6.8-4.46-10.28-1.58-.19-3.14-.42-4.69-.71a91.33,91.33,0,0,1,6.32,21c.22,2.21.44,4.62-1.3,6.22-2.76,1.64-7.08,1.27-10.48.92l2.08.46-.36,3.32c-1.32-.19-2.65-.34-4-.46a89.55,89.55,0,0,1,10.56,4c6.08,4,7.59,10.24,7.38,16.87,1.95,0,4.29,0,5.91,0-.43-7.43,2.12-15.09,9.72-18.5q3-1.15,6.1-2.12c-.85.08-1.7.18-2.54.3Z"/><path class="cls-14" d="M226.63,322l-2.08-.46-1-.11c-.84-.09-1.65-.22-2.45-.37l-.94,3.19c.73.19,1.44.39,2.15.61,1.32.12,2.65.27,4,.46Z"/><path class="cls-15" d="M226.63,322l-2.08-.46-1-.11c-.84-.09-1.65-.22-2.45-.37l-.94,3.19c.73.19,1.44.39,2.15.61,1.32.12,2.65.27,4,.46Z"/><path class="cls-16" d="M294.42,308.63c.67-.46,1.34-.94,2-1.47l.63-.51a30.55,30.55,0,0,1-8.67,4.35l-1.59-.43c-2.58-1.11-3.2-4.33-4-6.83-1.06-7-2.5-13.81-2-20.82-1.34.89-2.71,1.75-4.11,2.55a66.43,66.43,0,0,1-.82,16.17c-2.27,2.46-4.28-1.27-6.42-1.91-2.9-2.58-5.9-4.93-8.07-7.81-1.52.43-3.06.8-4.62,1.13a91.49,91.49,0,0,1,13.92,17c1,2,2.17,4.11,1.18,6.25-2,2.65-6.3,4-9.62,4.93l2.63-.46.94,3.21c-1.27.32-2.53.68-3.77,1.07a92.06,92.06,0,0,1,11-.31c7.16,1.38,10.93,6.55,13.27,12.75,1.82-.72,4-1.62,5.47-2.24-3.23-6.69-3.82-14.74,1.9-20.8,1.54-1.45,3.11-2.85,4.73-4.21-.77.41-1.53.83-2.28,1.27Z"/><path class="cls-17" d="M264.8,320.81l-2.63.46-.69.21c-.8.24-1.61.43-2.41.6l.36,3.31c.84-.12,1.69-.22,2.54-.3,1.24-.39,2.5-.75,3.77-1.07Z"/><path class="cls-18" d="M264.8,320.81l-2.63.46-.69.21c-.8.24-1.61.43-2.41.6l.36,3.31c.84-.12,1.69-.22,2.54-.3,1.24-.39,2.5-.75,3.77-1.07Z"/><path class="cls-19" d="M322.13,282.2c.38-.59.75-1.2,1.1-1.83a28.65,28.65,0,0,1-6,6.81l-1.63.21c-2.8,0-4.61-2.77-6.31-4.77-3.64-6-7.57-11.79-9.84-18.41q-1.35,2-2.83,3.9a67,67,0,0,1,5.43,15.24c-1.16,3.14-4.45.47-6.67.7-3.69-1.3-7.38-2.32-10.49-4.16-1.25,1-2.53,1.91-3.84,2.81a91.35,91.35,0,0,1,19.43,10.45c1.72,1.4,3.57,3,3.48,5.31-.81,3.18-4.25,6-6.93,8.19.79-.51,1.57-1,2.34-1.49l2.09,2.6c-1.09.81-2.14,1.66-3.17,2.52a89.53,89.53,0,0,1,10-4.46c7.13-1.46,12.61,1.87,17.14,6.71,1.4-1.36,3.05-3,4.2-4.16-5.56-4.95-9.17-12.17-6.21-19.95,1-2.17,2-4.3,3.13-6.4-.62.74-1.23,1.49-1.81,2.27Z"/><path class="cls-20" d="M299.38,305.16c-.77.47-1.55,1-2.34,1.49l-.63.51c-.65.53-1.32,1-2,1.47l1.6,2.92c.75-.44,1.51-.86,2.28-1.27,1-.86,2.08-1.71,3.17-2.52Z"/><path class="cls-21" d="M299.38,305.16c-.77.47-1.55,1-2.34,1.49l-.63.51c-.65.53-1.32,1-2,1.47l1.6,2.92c.75-.44,1.51-.86,2.28-1.27,1-.86,2.08-1.71,3.17-2.52Z"/><path class="cls-22" d="M337.47,247.67c.1-.59.2-1.19.27-1.79a26.6,26.6,0,0,1-2.74,7.77l-1.43.82c-2.6,1-5.32-.8-7.65-2-4-2.93-8.05-5.68-11.72-8.87-1.14.75-2.29,1.49-3.46,2.2a67.86,67.86,0,0,1,8.76,10.12c.13,3.35-3.93,2.13-5.89,3.2-3.85.21-7.6.67-11.15.18-.77,1.38-1.58,2.74-2.44,4.06a91,91,0,0,1,21.78,2.21c2.13.64,4.44,1.36,5.25,3.58.51,3.5-2,7.82-3.65,10.93l-.17.29c.67-1,1.31-1.9,1.95-2.8l2.93,1.61c-.56.93-1.08,1.88-1.59,2.84a91.52,91.52,0,0,1,7.31-7.71c6-4.08,12.36-3.1,18.4-.37.77-1.79,1.67-3.95,2.29-5.45-7-2.44-13.13-7.72-13.37-16.05.06-2.34.19-4.67.42-7-.33,1-.64,2.11-.92,3.18Z"/><path class="cls-23" d="M325.18,277.57c-.64.9-1.28,1.84-1.95,2.8-.35.63-.72,1.24-1.1,1.83l2.58,2.09c.58-.78,1.19-1.53,1.81-2.27.51-1,1-1.91,1.59-2.84Z"/><path class="cls-24" d="M325.18,277.57c-.64.9-1.28,1.84-1.95,2.8-.35.63-.72,1.24-1.1,1.83l2.58,2.09c.58-.78,1.19-1.53,1.81-2.27.51-1,1-1.91,1.59-2.84Z"/><path class="cls-25" d="M345,215.34a131.67,131.67,0,0,1-16.72,17.57q1.25-.25,2.52-.48c2.21-.22,4.62-.44,6.22,1.29,1.81,3.05,1.17,8,.81,11.5,0,.23-.06.44-.09.66.32-1.41.6-2.81.92-4.14l3.32.35c-.17,1.12-.3,2.23-.41,3.34a94.56,94.56,0,0,1,3.69-9.53c4-6.08,10.23-7.59,16.85-7.38,0-2,0-4.29,0-5.91C355.58,223,348.84,221,345,215.34Z"/><path class="cls-26" d="M338.66,241.74c-.32,1.33-.6,2.73-.92,4.14-.07.6-.17,1.2-.27,1.79l3.18.94c.28-1.07.59-2.13.92-3.18.11-1.11.24-2.22.41-3.34Z"/><path class="cls-27" d="M338.66,241.74c-.32,1.33-.6,2.73-.92,4.14-.07.6-.17,1.2-.27,1.79l3.18.94c.28-1.07.59-2.13.92-3.18.11-1.11.24-2.22.41-3.34Z"/><path class="cls-28" d="M304.06,249.64a65.8,65.8,0,0,1-122.85,0c-1.18-.63-2.36-1.28-3.52-1.95A68.36,68.36,0,0,0,183,259.6l.93-.06-.28-.55.2.1a11.81,11.81,0,0,0,2.28,4.62l-.64,0c.21.33.43.65.65,1,.07-.19.15-.38.23-.57a1.56,1.56,0,0,0-.2-.43l.21-.11a11.44,11.44,0,0,0,2.88,4.54l0,0v0l-.1-.1-.25.44a69.28,69.28,0,0,0,11.71,11.63l.78-.39-.46-.4h.21a13.08,13.08,0,0,0,1.1,1.3,12.33,12.33,0,0,0,2.57,2l-.17-.13.15-.19a11.56,11.56,0,0,0,4.4,3.1h.05l-.14,0c0,.12,0,.25,0,.37A68,68,0,0,0,224.38,292l.52-.59-.59-.19.21-.07A11.25,11.25,0,0,0,226,292a12.08,12.08,0,0,0,3.38.88l-.35.32.95.18c-.06-.15-.12-.3-.19-.45s4.83.79,4.79.8.06.24.09.36a69.34,69.34,0,0,0,7.93.46,68.6,68.6,0,0,0,8.66-.55c.08-.22.16-.44.23-.67a36,36,0,0,0,4.7-.44l-.17.34.64-.13-.32-.31a1.45,1.45,0,0,0-.47,0l0-.24a11.49,11.49,0,0,0,5.3-.92l0,0h0l-.13.07.21.27a67.92,67.92,0,0,0,15.31-6.45c0-.22,0-.44,0-.66l-.56.27.11-.2a12,12,0,0,0,1.61-.52,12.17,12.17,0,0,0,3-1.76c0,.1,0,.21,0,.32l.33-.22-.37-.15a1.65,1.65,0,0,0-.42.21l-.12-.22a11.45,11.45,0,0,0,4.54-2.87l0,0h0a.87.87,0,0,0-.09.11l.25.15a69.18,69.18,0,0,0,11.73-11.78l-.3-.61-.41.46c0-.07,0-.14,0-.22a11.83,11.83,0,0,0,1.29-1.09,12.58,12.58,0,0,0,2.11-2.79l.12.35.56-.85h-.56a1.66,1.66,0,0,0-.31.35l-.19-.15a11.7,11.7,0,0,0,3.1-4.39.09.09,0,0,1,0-.05h0a.58.58,0,0,1-.05.14l.43.05a67.76,67.76,0,0,0,5.12-11.61C306.42,248.36,305.24,249,304.06,249.64Z"/><path class="cls-29" d="M205,282.73l-.47.17.5.32v-.45Z"/><path class="cls-30" d="M184.34,260.71a12.62,12.62,0,0,1-.52-1.62l-.2-.1.28.55-.93.06q1.17,2.08,2.49,4.07l.64,0A12.62,12.62,0,0,1,184.34,260.71Z"/><path class="cls-31" d="M184.34,260.71a12.62,12.62,0,0,1-.52-1.62l-.2-.1.28.55-.93.06q1.17,2.08,2.49,4.07l.64,0A12.62,12.62,0,0,1,184.34,260.71Z"/><path class="cls-32" d="M204.82,282.58a12.33,12.33,0,0,1-2.57-2,13.08,13.08,0,0,1-1.1-1.3h-.21l.46.4-.78.39c1.26,1,2.56,1.91,3.88,2.81l.47-.17Z"/><path class="cls-33" d="M204.82,282.58a12.33,12.33,0,0,1-2.57-2,13.08,13.08,0,0,1-1.1-1.3h-.21l.46.4-.78.39c1.26,1,2.56,1.91,3.88,2.81l.47-.17Z"/><path class="cls-34" d="M189.26,268.12v0l0,0a11.44,11.44,0,0,1-2.88-4.54l-.21.11a1.56,1.56,0,0,1,.2.43c-.08.19-.16.38-.23.57q1.33,2,2.8,3.82l.25-.44Z"/><path class="cls-35" d="M189.26,268.12v0l0,0a11.44,11.44,0,0,1-2.88-4.54l-.21.11a1.56,1.56,0,0,1,.2.43c-.08.19-.16.38-.23.57q1.33,2,2.8,3.82l.25-.44Z"/><path class="cls-36" d="M226,292a11.25,11.25,0,0,1-1.51-.77l-.21.07.59.19-.52.59c1.54.43,3.1.8,4.68,1.12l.35-.32A12.08,12.08,0,0,1,226,292Z"/><path class="cls-37" d="M226,292a11.25,11.25,0,0,1-1.51-.77l-.21.07.59.19-.52.59c1.54.43,3.1.8,4.68,1.12l.35-.32A12.08,12.08,0,0,1,226,292Z"/><path class="cls-38" d="M209.25,285.38h-.05a11.56,11.56,0,0,1-4.4-3.1l-.15.19.17.13.21.13-.06,0,0,0v.45c1.33.88,2.68,1.71,4.07,2.49,0-.12,0-.25,0-.37Z"/><path class="cls-39" d="M209.25,285.38h-.05a11.56,11.56,0,0,1-4.4-3.1l-.15.19.17.13.21.13-.06,0,0,0v.45c1.33.88,2.68,1.71,4.07,2.49,0-.12,0-.25,0-.37Z"/><path class="cls-40" d="M205,282.73l.06,0-.21-.13Z"/><path class="cls-41" d="M205,282.73l.06,0-.21-.13Z"/><path class="cls-42" d="M205,282.73l.06,0-.21-.13Z"/><path class="cls-43" d="M251.52,293.28c-.07.23-.15.45-.23.67,1.61-.2,3.2-.46,4.76-.77l.17-.34A36,36,0,0,1,251.52,293.28Z"/><path class="cls-44" d="M251.52,293.28c-.07.23-.15.45-.23.67,1.61-.2,3.2-.46,4.76-.77l.17-.34A36,36,0,0,1,251.52,293.28Z"/><path class="cls-45" d="M229.82,292.88c.07.15.13.3.19.45,1.55.29,3.11.52,4.69.71,0-.12-.07-.24-.09-.36S229.66,292.79,229.82,292.88Z"/><path class="cls-46" d="M229.82,292.88c.07.15.13.3.19.45,1.55.29,3.11.52,4.69.71,0-.12-.07-.24-.09-.36S229.66,292.79,229.82,292.88Z"/><path class="cls-47" d="M277.74,284.36a12,12,0,0,1-1.61.52l-.11.2.56-.27c0,.22,0,.44,0,.66,1.4-.8,2.77-1.66,4.11-2.55,0-.11,0-.22,0-.32A12.17,12.17,0,0,1,277.74,284.36Z"/><path class="cls-48" d="M277.74,284.36a12,12,0,0,1-1.61.52l-.11.2.56-.27c0,.22,0,.44,0,.66,1.4-.8,2.77-1.66,4.11-2.55,0-.11,0-.22,0-.32A12.17,12.17,0,0,1,277.74,284.36Z"/><path class="cls-49" d="M261.23,291.58h0l0,0a11.49,11.49,0,0,1-5.3.92l0,.24a1.45,1.45,0,0,1,.47,0l.32.31c1.56-.33,3.1-.7,4.62-1.13l-.21-.27Z"/><path class="cls-50" d="M261.23,291.58h0l0,0a11.49,11.49,0,0,1-5.3.92l0,.24a1.45,1.45,0,0,1,.47,0l.32.31c1.56-.33,3.1-.7,4.62-1.13l-.21-.27Z"/><path class="cls-51" d="M297.23,266.65a11.83,11.83,0,0,1-1.29,1.09c0,.08,0,.15,0,.22l.41-.46.3.61q1.49-1.91,2.83-3.9l-.12-.35A12.58,12.58,0,0,1,297.23,266.65Z"/><path class="cls-52" d="M297.23,266.65a11.83,11.83,0,0,1-1.29,1.09c0,.08,0,.15,0,.22l.41-.46.3.61q1.49-1.91,2.83-3.9l-.12-.35A12.58,12.58,0,0,1,297.23,266.65Z"/><path class="cls-53" d="M284.74,279.63h0l0,0a11.45,11.45,0,0,1-4.54,2.87l.12.22a1.65,1.65,0,0,1,.42-.21l.37.15c1.31-.9,2.59-1.83,3.84-2.81l-.25-.15A.87.87,0,0,1,284.74,279.63Z"/><path class="cls-54" d="M284.74,279.63h0l0,0a11.45,11.45,0,0,1-4.54,2.87l.12.22a1.65,1.65,0,0,1,.42-.21l.37.15c1.31-.9,2.59-1.83,3.84-2.81l-.25-.15A.87.87,0,0,1,284.74,279.63Z"/><path class="cls-55" d="M302.08,259.11h0a.09.09,0,0,0,0,.05,11.7,11.7,0,0,1-3.1,4.39l.19.15a1.66,1.66,0,0,1,.31-.35H300c.86-1.32,1.67-2.68,2.44-4.06l-.43-.05A.58.58,0,0,0,302.08,259.11Z"/><path class="cls-56" d="M302.08,259.11h0a.09.09,0,0,0,0,.05,11.7,11.7,0,0,1-3.1,4.39l.19.15a1.66,1.66,0,0,1,.31-.35H300c.86-1.32,1.67-2.68,2.44-4.06l-.43-.05A.58.58,0,0,0,302.08,259.11Z"/><path class="cls-2" d="M171.78,192.33c-2,1.06-6-.15-5.88,3.19a66.9,66.9,0,0,0,10.84,12,67.67,67.67,0,0,1,6.43-15.37C179.55,191.63,175.72,192.1,171.78,192.33Z"/><path class="cls-2" d="M299.8,166.42a66.46,66.46,0,0,0-15.34,5.47,68.81,68.81,0,0,1,11.85,11.72c1.87-3.13,2.89-6.83,4.18-10.52C300.26,170.86,302.94,167.58,299.8,166.42Z"/><path class="cls-2" d="M303.84,152.86l-.21-1.63c-2.5-3.3-6.13-5.46-9.22-7.66-2.63-1.34-5.61-2.55-8.16-2.18-2.21.82-2.93,3.13-3.58,5.25a91.54,91.54,0,0,0-2.2,22.34l.07.07c6.68-2.26,12.46-6.21,18.53-9.88C301.07,157.47,303.8,155.66,303.84,152.86Z"/><path class="cls-2" d="M176.68,244.36a20.61,20.61,0,0,0-1.89,1.61c1,.58,1.92,1.16,2.9,1.72C177.32,246.59,177,245.48,176.68,244.36Z"/><path class="cls-2" d="M276.22,166.37h0l.13,0c.59-3.67.1-7.57-.13-11.57-1.06-2,.15-6-3.19-5.89a67,67,0,0,0-12.25,11.11,68.09,68.09,0,0,1,19,8.5,11.65,11.65,0,0,0-3.48-2.17Z"/><path class="cls-2" d="M316.19,199.4c.63-2.14,4.37-4.15,1.9-6.42a66.56,66.56,0,0,0-16-.84,68.28,68.28,0,0,1,6.4,15.23C311.32,205.21,313.63,202.26,316.19,199.4Z"/><path class="cls-2" d="M332.79,197c-2.14-1-4.29.13-6.24,1.18A91,91,0,0,0,309.62,212c.05.26.11.53.16.8,6.24,3,13,4.3,19.81,6,2.62.21,5.83.86,7.83-1.09l1-1.3a31.21,31.21,0,0,0-.73-9.87C336.72,203.19,335.41,198.94,332.79,197Z"/><path class="cls-2" d="M320.2,186c2.49-.8,5.71-1.43,6.82-4l.43-1.59c-1-3.79-3.3-7-5.25-10.08-2-2.45-4.54-5.13-7.3-5.83-2.35-.09-3.91,1.76-5.31,3.48a91.39,91.39,0,0,0-10.45,19.47l.42.61C306.5,188.47,313.27,187.05,320.2,186Z"/><path class="cls-2" d="M183.15,168.89a66.32,66.32,0,0,0,5.41,15.22,69,69,0,0,1,11.69-11.78c-3.11-1.84-6.77-2.85-10.44-4.13C187.59,168.43,184.3,165.75,183.15,168.89Z"/><path class="cls-2" d="M216.36,152.22c-2.13-.64-4.15-4.36-6.42-1.9a66.59,66.59,0,0,0-.83,16.07,67.86,67.86,0,0,1,15.35-6.32C222.29,157.17,219.27,154.82,216.36,152.22Z"/><path class="cls-2" d="M175.89,169.62c-1.69-2-3.5-4.73-6.3-4.77l-1.63.21c-3,2.28-5.09,5.52-7.1,8.41-1.46,2.79-2.92,6.06-2.52,8.83.81,2.21,3.13,2.93,5.25,3.57a91.12,91.12,0,0,0,22.11,2.21l0-.06C183.47,181.4,179.54,175.65,175.89,169.62Z"/><path class="cls-2" d="M203,148.21c-.8-2.5-1.43-5.71-4-6.82l-1.58-.43c-3.6.94-6.7,3.07-9.61,4.95-2.62,2.13-5.78,4.85-6.54,7.87-.1,2.36,1.76,3.91,3.48,5.32a91.86,91.86,0,0,0,19.37,10.41l.94-.63C205.44,161.93,204,155.15,203,148.21Z"/><path class="cls-2" d="M307.58,247.69c1.06-.61,2.12-1.24,3.16-1.89-.66-.63-1.34-1.24-2-1.84C308.36,245.22,308,246.46,307.58,247.69Z"/><path class="cls-2" d="M235.8,139c.21-2.62.87-5.83-1.09-7.83l-1.3-1c-3.86-.54-7.72.35-11.27,1-3,.94-6.49,2.23-8.19,4.51-1,2.14.13,4.29,1.18,6.24a91.54,91.54,0,0,0,14,17.1l.68-.13C232.84,152.57,234.12,145.77,235.8,139Z"/><path class="cls-2" d="M241.44,143.58a66.21,66.21,0,0,0-6.91,14.52,69.78,69.78,0,0,1,8.1-.48,67.86,67.86,0,0,1,8.48.53c-.89-3.51-2.77-6.84-4.47-10.35C244.91,146.39,244.48,142.17,241.44,143.58Z"/><path class="cls-2" d="M269.58,142.53c1.2-2.34,3-5.06,2-7.66l-.82-1.42a23.81,23.81,0,0,0-6.27-2.4c-.73-.12-1.47-.24-2.23-.32-3.51-.36-8.45-1-11.5.81-1.73,1.6-1.51,4-1.29,6.22a91.2,91.2,0,0,0,6.37,21.14c1,.19,2,.41,2.93.64a13.45,13.45,0,0,0-2.7-.63C261.46,154.24,265.33,148.31,269.58,142.53Z"/><path class="cls-2" d="M309.8,239.25a46.31,46.31,0,0,0,4.4,4.35,131,131,0,0,0,14.08-10.69,90.87,90.87,0,0,0-18.38,5.78C309.87,238.88,309.83,239.07,309.8,239.25Z"/><path class="cls-2" d="M242.63,160.28a65.81,65.81,0,0,0-61.42,89.36,130.5,130.5,0,0,0,122.85,0,65.81,65.81,0,0,0-61.43-89.36Z"/><path class="cls-2" d="M159.47,199c-2.33-1.21-5.05-3-7.65-2l-1.42.82a29.4,29.4,0,0,0-3,8.85c-.36,3.49-.93,8.25.84,11.22,1.6,1.73,4,1.52,6.22,1.3a91.94,91.94,0,0,0,21-6.31l.12-.65C171,207,165.15,203.14,159.47,199Z"/><path class="cls-2" d="M310.61,234c3.44-.92,6.7-2.76,10.15-4.42,1.41-1.73,5.63-2.16,4.22-5.2a66.69,66.69,0,0,0-14.44-6.89,68.87,68.87,0,0,1,.53,8.55A69.74,69.74,0,0,1,310.61,234Z"/><path class="cls-2" d="M174.72,217.55c-3.45.91-6.74,2.76-10.21,4.43-1.41,1.73-5.63,2.17-4.22,5.21a66.74,66.74,0,0,0,14.37,6.86,69.76,69.76,0,0,1,.06-16.5Z"/><path class="cls-2" d="M175.57,239.74c-.07-.32-.13-.65-.19-1-5.69-2.74-11.83-4-18-5.52a130.22,130.22,0,0,0,14,10.57C172.83,242.5,174.22,241.15,175.57,239.74Z"/><path class="cls-57" d="M190.78,143.61c-.68.46-1.34.94-2,1.47l-1,.83c2.91-1.88,6-4,9.61-4.95l1.58.43c2.57,1.11,3.2,4.32,4,6.82,1.06,6.94,2.48,13.72,2.06,20.67,1.33-.88,2.7-1.71,4.09-2.49a66.59,66.59,0,0,1,.83-16.07c2.27-2.46,4.29,1.26,6.42,1.9,2.91,2.6,5.93,4.95,8.1,7.85q2.29-.63,4.65-1.11a91.54,91.54,0,0,1-14-17.1c-1-2-2.17-4.1-1.18-6.24,1.7-2.28,5.15-3.57,8.19-4.51l-1.14.19-.94-3.2c1.55-.39,3.06-.84,4.57-1.32a87.88,87.88,0,0,1-11.82.4c-7.15-1.38-10.94-6.55-13.28-12.75-1.81.72-4,1.61-5.46,2.23,3.24,6.7,3.81,14.75-1.9,20.8-1.54,1.45-3.11,2.86-4.73,4.22.58-.32,1.17-.65,1.74-1Z"/><path class="cls-57" d="M163.27,169.24c-.45.68-.88,1.38-1.27,2.12s-.75,1.37-1.14,2.11c2-2.89,4.08-6.13,7.1-8.41l1.63-.21c2.8,0,4.61,2.77,6.3,4.77,3.65,6,7.58,11.78,9.85,18.4q1.33-2,2.82-3.91a66.32,66.32,0,0,1-5.41-15.22c1.15-3.14,4.44-.46,6.66-.69,3.67,1.28,7.33,2.29,10.44,4.13q1.86-1.47,3.83-2.82a91.86,91.86,0,0,1-19.37-10.41c-1.72-1.41-3.58-3-3.48-5.32.76-3,3.92-5.74,6.54-7.87l-1.41.89-2.1-2.6c1.09-.81,2.14-1.66,3.18-2.52a89.85,89.85,0,0,1-10.5,4.74c-7.13,1.46-12.61-1.87-17.14-6.71-1.4,1.37-3.05,3-4.2,4.17,5.56,4.94,9.17,12.16,6.21,19.94q-1.09,2.44-2.29,4.83c.39-.49.78-1,1.16-1.5Z"/><path class="cls-58" d="M186.36,146.8l1.41-.89,1-.83c.65-.53,1.31-1,2-1.47l-1.6-2.92c-.57.34-1.16.67-1.74,1-1,.86-2.09,1.71-3.18,2.52Z"/><path class="cls-57" d="M186.36,146.8l1.41-.89,1-.83c.65-.53,1.31-1,2-1.47l-1.6-2.92c-.57.34-1.16.67-1.74,1-1,.86-2.09,1.71-3.18,2.52Z"/><path class="cls-57" d="M151.82,197c2.6-1,5.32.79,7.65,2,5.68,4.17,11.5,8,16.13,13.23.33-1.58.71-3.14,1.14-4.67a66.9,66.9,0,0,1-10.84-12c-.14-3.34,3.92-2.13,5.88-3.19,3.94-.23,7.77-.7,11.39-.17.79-1.39,1.64-2.75,2.53-4.08a91.12,91.12,0,0,1-22.11-2.21c-2.12-.64-4.44-1.36-5.25-3.57-.4-2.77,1.06-6,2.52-8.83-.28.41-.56.81-.84,1.19l-2.94-1.59c.87-1.45,1.68-2.93,2.44-4.42a88,88,0,0,1-8,8.48c-6,4.08-12.36,3.1-18.4.37-.77,1.79-1.67,3.95-2.29,5.45,7,2.44,13.13,7.72,13.37,16.05-.06,2.21-.17,4.42-.38,6.63.27-.88.52-1.76.75-2.65l3.2.93c-.15.81-.29,1.62-.37,2.45l0,.28a29.4,29.4,0,0,1,3-8.85Z"/><path class="cls-59" d="M160,174.66c.28-.38.56-.78.84-1.19.39-.74.78-1.46,1.14-2.11s.82-1.44,1.27-2.12l-2.59-2.09c-.38.51-.77,1-1.16,1.5-.76,1.49-1.57,3-2.44,4.42Z"/><path class="cls-57" d="M160,174.66c.28-.38.56-.78.84-1.19.39-.74.78-1.46,1.14-2.11s.82-1.44,1.27-2.12l-2.59-2.09c-.38.51-.77,1-1.16,1.5-.76,1.49-1.57,3-2.44,4.42Z"/><path class="cls-57" d="M157.37,233.24c6.18,1.48,12.32,2.78,18,5.52q-.44-2.32-.72-4.71a66.74,66.74,0,0,1-14.37-6.86c-1.41-3,2.81-3.48,4.22-5.21,3.47-1.67,6.76-3.52,10.21-4.43.2-1.59.45-3.15.76-4.7a91.94,91.94,0,0,1-21,6.31c-2.21.22-4.62.43-6.22-1.3-1.77-3-1.2-7.73-.84-11.22-.22,1.05-.44,2.08-.68,3.07l-3.32-.36c.19-1.24.33-2.48.45-3.72a89.29,89.29,0,0,1-3.66,9.62A131,131,0,0,0,157.37,233.24Z"/><path class="cls-60" d="M147.81,203.91l-3.2-.93c-.23.89-.48,1.77-.75,2.65-.12,1.24-.26,2.48-.45,3.72l3.32.36c.24-1,.46-2,.68-3.07l0-.28C147.52,205.53,147.66,204.72,147.81,203.91Z"/><path class="cls-57" d="M147.81,203.91l-3.2-.93c-.23.89-.48,1.77-.75,2.65-.12,1.24-.26,2.48-.45,3.72l3.32.36c.24-1,.46-2,.68-3.07l0-.28C147.52,205.53,147.66,204.72,147.81,203.91Z"/><path class="cls-61" d="M175.57,239.74c-1.35,1.41-2.74,2.76-4.18,4.07,1.12.73,2.25,1.46,3.4,2.16a20.61,20.61,0,0,1,1.89-1.61C176.26,242.84,175.88,241.3,175.57,239.74Z"/><path class="cls-62" d="M309.8,239.25c-.31,1.59-.68,3.16-1.1,4.71.7.6,1.38,1.21,2,1.84,1.17-.71,2.32-1.45,3.46-2.2A46.31,46.31,0,0,1,309.8,239.25Z"/><path class="cls-57" d="M341.55,206.84c.08.84.17,1.67.29,2.51l-3.31.35c-.16-.8-.35-1.6-.59-2.4l-.24-.8a31.21,31.21,0,0,1,.73,9.87l-1,1.3c-2,2-5.21,1.3-7.83,1.09-6.78-1.68-13.57-3-19.81-6,.31,1.56.56,3.14.76,4.73A66.69,66.69,0,0,1,325,224.4c1.41,3-2.81,3.47-4.22,5.2-3.45,1.66-6.71,3.5-10.15,4.42-.18,1.57-.42,3.13-.71,4.67a90.87,90.87,0,0,1,18.38-5.78A131.67,131.67,0,0,0,345,215.34a16.31,16.31,0,0,1-1.35-2.44C342.89,210.9,342.18,208.88,341.55,206.84Z"/><path class="cls-57" d="M325.08,174.05c-.46-.67-.94-1.34-1.47-2s-.91-1.13-1.41-1.73c1.95,3.06,4.26,6.29,5.25,10.08L327,182c-1.11,2.57-4.33,3.2-6.82,4-6.93,1.05-13.7,2.47-20.64,2.06q1.33,2,2.53,4.08a66.56,66.56,0,0,1,16,.84c2.47,2.27-1.27,4.28-1.9,6.42-2.56,2.86-4.87,5.81-7.7,8,.43,1.52.8,3,1.13,4.61a91,91,0,0,1,16.93-13.81c1.95-1,4.1-2.17,6.24-1.18,2.62,1.95,3.93,6.2,4.91,9.51-.16-.87-.32-1.71-.45-2.54l3.21-.94c.32,1.29.69,2.56,1.09,3.82a88.59,88.59,0,0,1-.32-11c1.38-7.16,6.55-10.94,12.75-13.27-.72-1.82-1.61-4-2.24-5.48-6.69,3.24-14.74,3.82-20.8-1.89q-1.94-2.06-3.76-4.2c.26.48.54,1,.82,1.45Z"/><path class="cls-63" d="M337.25,204c.13.83.29,1.67.45,2.54l.24.8c.24.8.43,1.6.59,2.4l3.31-.35c-.12-.84-.21-1.67-.29-2.51-.4-1.26-.77-2.53-1.09-3.82Z"/><path class="cls-57" d="M337.25,204c.13.83.29,1.67.45,2.54l.24.8c.24.8.43,1.6.59,2.4l3.31-.35c-.12-.84-.21-1.67-.29-2.51-.4-1.26-.77-2.53-1.09-3.82Z"/><path class="cls-57" d="M299.31,146.32c-.69-.44-1.39-.88-2.12-1.27s-1.79-1-2.78-1.48c3.09,2.2,6.72,4.36,9.22,7.66l.21,1.63c0,2.8-2.77,4.61-4.77,6.31-6.07,3.67-11.85,7.62-18.53,9.88a.17.17,0,0,0,.06.06c1.32.89,2.61,1.81,3.86,2.78a66.46,66.46,0,0,1,15.34-5.47c3.14,1.16.46,4.44.69,6.67-1.29,3.69-2.31,7.39-4.18,10.52q1.49,1.86,2.83,3.84A91.39,91.39,0,0,1,309.59,168c1.4-1.72,3-3.57,5.31-3.48,2.76.7,5.27,3.38,7.3,5.83-.2-.31-.4-.62-.59-.93l2.61-2.1c.94,1.28,1.94,2.51,3,3.71a87.37,87.37,0,0,1-4.91-10.79c-1.46-7.14,1.87-12.61,6.71-17.14-1.37-1.4-3-3.06-4.17-4.21-4.94,5.56-12.16,9.18-19.95,6.21-1.48-.66-3-1.36-4.42-2.09.32.25.63.5,1,.74Z"/><path class="cls-64" d="M321.61,169.4c.19.31.39.62.59.93.5.6,1,1.19,1.41,1.73s1,1.32,1.47,2l2.92-1.59c-.28-.48-.56-1-.82-1.45-1-1.2-2-2.43-3-3.71Z"/><path class="cls-57" d="M321.61,169.4c.19.31.39.62.59.93.5.6,1,1.19,1.41,1.73s1,1.32,1.47,2l2.92-1.59c-.28-.48-.56-1-.82-1.45-1-1.2-2-2.43-3-3.71Z"/><path class="cls-57" d="M264.71,131.09l-.22,0a23.81,23.81,0,0,1,6.27,2.4l.82,1.42c1,2.6-.8,5.32-2,7.66-4.25,5.78-8.12,11.71-13.51,16.38a13.45,13.45,0,0,1,2.7.63c.67.16,1.35.34,2,.52A67,67,0,0,1,273,149c3.34-.14,2.13,3.92,3.19,5.89.23,4,.72,7.9.13,11.57l-.13,0h0l0,0a11.65,11.65,0,0,1,3.48,2.17l.77.5h0l-.07-.07a91.54,91.54,0,0,1,2.2-22.34c.65-2.12,1.37-4.43,3.58-5.25,2.55-.37,5.53.84,8.16,2.18l-.39-.28,1.61-2.93c1.57.94,3.18,1.81,4.81,2.63a85.17,85.17,0,0,1-9-8.38c-4.08-6-3.11-12.36-.37-18.4-1.79-.77-3.95-1.66-5.45-2.28-2.44,7-7.73,13.12-16.05,13.37-2.54-.08-5.08-.22-7.62-.49,1.22.4,2.46.77,3.72,1.09Z"/><path class="cls-65" d="M294,143.29l.39.28c1,.5,1.93,1,2.78,1.48s1.43.83,2.12,1.27l2.09-2.59c-.33-.24-.64-.49-1-.74-1.63-.82-3.24-1.69-4.81-2.63Z"/><path class="cls-57" d="M294,143.29l.39.28c1,.5,1.93,1,2.78,1.48s1.43.83,2.12,1.27l2.09-2.59c-.33-.24-.64-.49-1-.74-1.63-.82-3.24-1.69-4.81-2.63Z"/><path class="cls-66" d="M280.54,169.05h0l.08.05A.17.17,0,0,1,280.54,169.05Z"/><path class="cls-67" d="M280.54,169.05h0l.08.05A.17.17,0,0,1,280.54,169.05Z"/><path class="cls-57" d="M226.67,129.88c-.8.16-1.6.35-2.4.59l-2.13.64c3.55-.63,7.41-1.52,11.27-1l1.3,1c2,2,1.3,5.21,1.09,7.83-1.68,6.8-3,13.6-6,19.86,1.56-.29,3.14-.54,4.74-.73a66.21,66.21,0,0,1,6.91-14.52c3-1.41,3.47,2.81,5.2,4.22,1.7,3.51,3.58,6.84,4.47,10.35,1.6.19,3.17.45,4.73.75a91.2,91.2,0,0,1-6.37-21.14c-.22-2.21-.44-4.62,1.29-6.22,3.05-1.82,8-1.17,11.5-.81.76.08,1.5.2,2.23.32-1.93-.48-3.86-.83-5.65-1.26l.36-3.33c.91.14,1.82.25,2.73.35-3.23-1.06-6.29-2.32-9-3.51-6.08-4-7.59-10.23-7.38-16.86-1.95,0-4.29,0-5.91,0,.43,7.43-2.12,15.09-9.71,18.5-1.76.66-3.52,1.29-5.31,1.87q.84-.09,1.68-.21Z"/><path class="cls-68" d="M221,131.3l1.14-.19,2.13-.64c.8-.24,1.6-.43,2.4-.59l-.36-3.31q-.84.12-1.68.21c-1.51.48-3,.93-4.57,1.32Z"/><path class="cls-57" d="M221,131.3l1.14-.19,2.13-.64c.8-.24,1.6-.43,2.4-.59l-.36-3.31q-.84.12-1.68.21c-1.51.48-3,.93-4.57,1.32Z"/><path class="cls-69" d="M258.84,129.79c1.79.43,3.72.78,5.65,1.26l.22,0,.94-3.19c-1.26-.32-2.5-.69-3.72-1.09-.91-.1-1.82-.21-2.73-.35Z"/><path class="cls-57" d="M258.84,129.79c1.79.43,3.72.78,5.65,1.26l.22,0,.94-3.19c-1.26-.32-2.5-.69-3.72-1.09-.91-.1-1.82-.21-2.73-.35Z"/><path class="cls-70" d="M176,239.33a2.8,2.8,0,0,0,0-.29l-.59-.28c.06.33.12.66.19,1Z"/><path class="cls-71" d="M185.74,188l0,.06h.06A.14.14,0,0,1,185.74,188Z"/><path class="cls-72" d="M299.11,188l.45,0-.42-.61-.13.33A.93.93,0,0,0,299.11,188Z"/><path class="cls-73" d="M229.6,159.22c.07-.13.13-.26.19-.39l-.68.13a3.19,3.19,0,0,0,.26.26Z"/><path class="cls-74" d="M175.51,233.73a2.09,2.09,0,0,0,.14.17,11.44,11.44,0,0,0-.14,1.69,12.51,12.51,0,0,0,.43,3.28h0l.25,0a11.59,11.59,0,0,0,.91,5.29l0,0v0l-.06-.13-.38.3c.31,1.12.64,2.23,1,3.33,1.16.67,2.34,1.32,3.52,1.95a65.79,65.79,0,1,1,122.85,0c1.18-.63,2.36-1.28,3.52-1.95.41-1.23.78-2.47,1.12-3.73l-.56-.49-.2.59-.06-.22a12.55,12.55,0,0,0,.77-1.51,12,12,0,0,0,.88-3.37l.27.29c0-.18.07-.37.1-.56l-.58.25a1.44,1.44,0,0,0-.16.45l-.24-.07a11.48,11.48,0,0,0,1.19-5.25s0,0,0,0h0a.71.71,0,0,1,0,.14l.49-.13a69.74,69.74,0,0,0,.46-8,68.87,68.87,0,0,0-.53-8.55c-.27-.09-.54-.19-.82-.27l0,.62c-.05-.06-.09-.12-.14-.17a11.58,11.58,0,0,0,.14-1.7,12.45,12.45,0,0,0-.48-3.45l.5.24c0-.27-.11-.54-.16-.8-.14.14-.29.28-.42.43a1.21,1.21,0,0,0,0,.47l-.24,0a11.71,11.71,0,0,0-.92-5.29l0-.05h0l.06.13.39-.31a68.28,68.28,0,0,0-6.4-15.23l-.83.06.28.56-.2-.11a12,12,0,0,0-.52-1.61,12.42,12.42,0,0,0-1.63-2.83l-.19.11a11.67,11.67,0,0,0-2.88-4.54s0,0,0,0v0l.11.1.12-.22a68.81,68.81,0,0,0-11.85-11.72l-.51.26.46.41-.22,0a13,13,0,0,0-1.1-1.29,12.62,12.62,0,0,0-2.35-1.85l-.08.1c-.09-.11-.19-.21-.28-.31l-.07,0h0a6.25,6.25,0,0,0-.58-.57,68.09,68.09,0,0,0-19-8.5l-.21.24.6.2-.22.07a12.59,12.59,0,0,0-1.51-.78l-.67-.25c-1-.23-1.95-.45-2.93-.64,0,.11.09.23.14.34a1.88,1.88,0,0,0,.45.16l-.07.23a11.61,11.61,0,0,0-5.25-1.18h-.05s0,0,0,0h.14a2.45,2.45,0,0,0-.08-.29,67.86,67.86,0,0,0-8.48-.53,69.78,69.78,0,0,0-8.1.48c-.09.25-.17.49-.25.74l.62-.05-.17.14a13.15,13.15,0,0,0-1.69-.13,12.85,12.85,0,0,0-3.2.41l0,.23a11.51,11.51,0,0,0-5.3.92l0,0h0l.14-.06-.19-.24a67.86,67.86,0,0,0-15.35,6.32c0,.25,0,.51,0,.76l.56-.28a2,2,0,0,0-.1.21,10.42,10.42,0,0,0-1.62.51,12.38,12.38,0,0,0-3,1.77l0-.48-.94.63.42.17a1.56,1.56,0,0,0,.43-.2l.12.22a11.62,11.62,0,0,0-4.55,2.87s0,0,0,0h0l.1-.1-.31-.17a69,69,0,0,0-11.69,11.78c.11.21.2.43.31.64l.41-.47c0,.07,0,.15,0,.22a14.32,14.32,0,0,0-1.3,1.1,12.78,12.78,0,0,0-1.71,2.13l.19.15a11.45,11.45,0,0,0-3.1,4.4.06.06,0,0,0,0,0h0a.58.58,0,0,1,.05-.14l-.19,0a67.67,67.67,0,0,0-6.43,15.37l.51.45.2-.59c0,.07.05.14.07.21a12.59,12.59,0,0,0-.78,1.51,12.34,12.34,0,0,0-.88,3.38,3.58,3.58,0,0,0-.26-.29l-.12.65.47-.2a1.53,1.53,0,0,0,.16-.45l.23.07a11.58,11.58,0,0,0-1.18,5.25v0s0,0,0,0,0-.1,0-.15l-.43.12a69.76,69.76,0,0,0-.06,16.5l.89.3Z"/><path class="cls-75" d="M205,169.36a12.38,12.38,0,0,1,3-1.77,10.42,10.42,0,0,1,1.62-.51,2,2,0,0,1,.1-.21l-.56.28c0-.25,0-.51,0-.76-1.39.78-2.76,1.61-4.09,2.49Z"/><path class="cls-76" d="M205,169.36a12.38,12.38,0,0,1,3-1.77,10.42,10.42,0,0,1,1.62-.51,2,2,0,0,1,.1-.21l-.56.28c0-.25,0-.51,0-.76-1.39.78-2.76,1.61-4.09,2.49Z"/><path class="cls-77" d="M229.6,159.22h-.23a3.19,3.19,0,0,1-.26-.26q-2.36.48-4.65,1.11l.19.24-.14.06h0l0,0a11.51,11.51,0,0,1,5.3-.92l0-.23-.26.07Z"/><path class="cls-78" d="M229.6,159.22h-.23a3.19,3.19,0,0,1-.26-.26q-2.36.48-4.65,1.11l.19.24-.14.06h0l0,0a11.51,11.51,0,0,1,5.3-.92l0-.23-.26.07Z"/><path class="cls-79" d="M185.76,188.08h.17a1.24,1.24,0,0,0,.31-.35h0A12.78,12.78,0,0,1,188,185.6a14.32,14.32,0,0,1,1.3-1.1c0-.07,0-.15,0-.22l-.41.47c-.11-.21-.2-.43-.31-.64q-1.49,1.9-2.82,3.91A.14.14,0,0,0,185.76,188.08Z"/><path class="cls-80" d="M185.76,188.08h.17a1.24,1.24,0,0,0,.31-.35h0A12.78,12.78,0,0,1,188,185.6a14.32,14.32,0,0,1,1.3-1.1c0-.07,0-.15,0-.22l-.41.47c-.11-.21-.2-.43-.31-.64q-1.49,1.9-2.82,3.91A.14.14,0,0,0,185.76,188.08Z"/><path class="cls-81" d="M200.56,172.5l-.1.1h0s0,0,0,0a11.62,11.62,0,0,1,4.55-2.87l-.12-.22a1.56,1.56,0,0,1-.43.2l-.42-.17q-2,1.35-3.83,2.82Z"/><path class="cls-82" d="M200.56,172.5l-.1.1h0s0,0,0,0a11.62,11.62,0,0,1,4.55-2.87l-.12-.22a1.56,1.56,0,0,1-.43.2l-.42-.17q-2,1.35-3.83,2.82Z"/><path class="cls-83" d="M175.86,212.49a12.34,12.34,0,0,1,.88-3.38,12.59,12.59,0,0,1,.78-1.51c0-.07-.05-.14-.07-.21l-.2.59-.51-.45c-.43,1.53-.81,3.09-1.14,4.67A3.58,3.58,0,0,1,175.86,212.49Z"/><path class="cls-84" d="M175.86,212.49a12.34,12.34,0,0,1,.88-3.38,12.59,12.59,0,0,1,.78-1.51c0-.07-.05-.14-.07-.21l-.2.59-.51-.45c-.43,1.53-.81,3.09-1.14,4.67A3.58,3.58,0,0,1,175.86,212.49Z"/><path class="cls-85" d="M185.76,188.08h-.06c-.89,1.33-1.74,2.69-2.53,4.08l.19,0a.58.58,0,0,0-.05.14h0a.06.06,0,0,1,0,0,11.45,11.45,0,0,1,3.1-4.4l-.19-.15c-.14.22-.27.43-.39.65C185.83,188.28,185.79,188.18,185.76,188.08Z"/><path class="cls-86" d="M185.76,188.08h-.06c-.89,1.33-1.74,2.69-2.53,4.08l.19,0a.58.58,0,0,0-.05.14h0a.06.06,0,0,1,0,0,11.45,11.45,0,0,1,3.1-4.4l-.19-.15c-.14.22-.27.43-.39.65C185.83,188.28,185.79,188.18,185.76,188.08Z"/><path class="cls-87" d="M185.93,188.08h-.17c0,.1.07.2.1.3.12-.22.25-.43.39-.65h0A1.24,1.24,0,0,1,185.93,188.08Z"/><path class="cls-88" d="M185.93,188.08h-.17c0,.1.07.2.1.3.12-.22.25-.43.39-.65h0A1.24,1.24,0,0,1,185.93,188.08Z"/><path class="cls-89" d="M185.93,188.08h-.17c0,.1.07.2.1.3.12-.22.25-.43.39-.65h0A1.24,1.24,0,0,1,185.93,188.08Z"/><path class="cls-90" d="M175.16,217.58s0,0,0,0v0a11.58,11.58,0,0,1,1.18-5.25l-.23-.07a1.53,1.53,0,0,1-.16.45l-.47.2c-.31,1.55-.56,3.11-.76,4.7l.43-.12S175.15,217.53,175.16,217.58Z"/><path class="cls-91" d="M175.16,217.58s0,0,0,0v0a11.58,11.58,0,0,1,1.18-5.25l-.23-.07a1.53,1.53,0,0,1-.16.45l-.47.2c-.31,1.55-.56,3.11-.76,4.7l.43-.12S175.15,217.53,175.16,217.58Z"/><path class="cls-92" d="M175.94,238.87a12.51,12.51,0,0,1-.43-3.28,11.44,11.44,0,0,1,.14-1.69,2.09,2.09,0,0,1-.14-.17l0,.62-.89-.3q.28,2.38.72,4.71l.59.28Z"/><path class="cls-93" d="M175.94,238.87a12.51,12.51,0,0,1-.43-3.28,11.44,11.44,0,0,1,.14-1.69,2.09,2.09,0,0,1-.14-.17l0,.62-.89-.3q.28,2.38.72,4.71l.59.28Z"/><path class="cls-94" d="M177.12,244.19v0l0,0a11.59,11.59,0,0,1-.91-5.29l-.25,0h0c0,.06,0,.12.05.18h0a2.8,2.8,0,0,1,0,.29l-.4.41c.31,1.56.69,3.1,1.11,4.62l.38-.3Z"/><path class="cls-95" d="M177.12,244.19v0l0,0a11.59,11.59,0,0,1-.91-5.29l-.25,0h0c0,.06,0,.12.05.18h0a2.8,2.8,0,0,1,0,.29l-.4.41c.31,1.56.69,3.1,1.11,4.62l.38-.3Z"/><path class="cls-96" d="M175.94,238.87l0,.17h0C176,239,176,238.93,175.94,238.87Z"/><path class="cls-97" d="M175.94,238.87l0,.17h0C176,239,176,238.93,175.94,238.87Z"/><path class="cls-98" d="M175.94,238.87l0,.17h0C176,239,176,238.93,175.94,238.87Z"/><path class="cls-99" d="M308.65,242.33a12.55,12.55,0,0,1-.77,1.51l.06.22.2-.59.56.49c.42-1.55.79-3.12,1.1-4.71l-.27-.29A12,12,0,0,1,308.65,242.33Z"/><path class="cls-100" d="M308.65,242.33a12.55,12.55,0,0,1-.77,1.51l.06.22.2-.59.56.49c.42-1.55.79-3.12,1.1-4.71l-.27-.29A12,12,0,0,1,308.65,242.33Z"/><path class="cls-101" d="M310.11,234h0s0,0,0,0a11.48,11.48,0,0,1-1.19,5.25l.24.07a1.44,1.44,0,0,1,.16-.45l.58-.25c.29-1.54.53-3.1.71-4.67l-.49.13A.71.71,0,0,0,310.11,234Z"/><path class="cls-102" d="M310.11,234h0s0,0,0,0a11.48,11.48,0,0,1-1.19,5.25l.24.07a1.44,1.44,0,0,1,.16-.45l.58-.25c.29-1.54.53-3.1.71-4.67l-.49.13A.71.71,0,0,0,310.11,234Z"/><path class="cls-103" d="M309.76,216a11.58,11.58,0,0,1-.14,1.7c.05.05.09.11.14.17l0-.62c.28.08.55.18.82.27-.2-1.59-.45-3.17-.76-4.73l-.5-.24A12.45,12.45,0,0,1,309.76,216Z"/><path class="cls-104" d="M309.76,216a11.58,11.58,0,0,1-.14,1.7c.05.05.09.11.14.17l0-.62c.28.08.55.18.82.27-.2-1.59-.45-3.17-.76-4.73l-.5-.24A12.45,12.45,0,0,1,309.76,216Z"/><path class="cls-105" d="M299.11,188a1,1,0,0,0,.1.17h0a12.42,12.42,0,0,1,1.63,2.83,12,12,0,0,1,.52,1.61l.2.11-.28-.56.83-.06q-1.2-2.08-2.53-4.08Z"/><path class="cls-106" d="M299.11,188a1,1,0,0,0,.1.17h0a12.42,12.42,0,0,1,1.63,2.83,12,12,0,0,1,.52,1.61l.2.11-.28-.56.83-.06q-1.2-2.08-2.53-4.08Z"/><path class="cls-107" d="M308.1,207.68l-.06-.13h0l0,.05a11.71,11.71,0,0,1,.92,5.29l.24,0a1.21,1.21,0,0,1,0-.47c.13-.15.28-.29.42-.43-.33-1.56-.7-3.09-1.13-4.61Z"/><path class="cls-108" d="M308.1,207.68l-.06-.13h0l0,.05a11.71,11.71,0,0,1,.92,5.29l.24,0a1.21,1.21,0,0,1,0-.47c.13-.15.28-.29.42-.43-.33-1.56-.7-3.09-1.13-4.61Z"/><path class="cls-109" d="M280.31,169.14l.07,0-.05-.05Z"/><path class="cls-110" d="M280.31,169.14l.07,0-.05-.05Z"/><path class="cls-111" d="M299.11,188a.93.93,0,0,1-.1-.25l.13-.33q-1.35-2-2.83-3.84l-.12.22-.11-.1v0s0,0,0,0a11.67,11.67,0,0,1,2.88,4.54l.19-.11-.14-.18Z"/><path class="cls-112" d="M299.11,188a.93.93,0,0,1-.1-.25l.13-.33q-1.35-2-2.83-3.84l-.12.22-.11-.1v0s0,0,0,0a11.67,11.67,0,0,1,2.88,4.54l.19-.11-.14-.18Z"/><path class="cls-113" d="M280.82,169.3l-.08.09a12.62,12.62,0,0,1,2.35,1.85,13,13,0,0,1,1.1,1.29l.22,0-.46-.41.51-.26c-1.25-1-2.54-1.89-3.86-2.78A1.86,1.86,0,0,0,280.82,169.3Z"/><path class="cls-114" d="M280.82,169.3l-.08.09a12.62,12.62,0,0,1,2.35,1.85,13,13,0,0,1,1.1,1.29l.22,0-.46-.41.51-.26c-1.25-1-2.54-1.89-3.86-2.78A1.86,1.86,0,0,0,280.82,169.3Z"/><path class="cls-115" d="M299.11,188h-.06l.14.18h0A1,1,0,0,1,299.11,188Z"/><path class="cls-116" d="M299.11,188h-.06l.14.18h0A1,1,0,0,1,299.11,188Z"/><path class="cls-117" d="M299.11,188h-.06l.14.18h0A1,1,0,0,1,299.11,188Z"/><path class="cls-118" d="M259.44,159.79a12.59,12.59,0,0,1,1.51.78l.22-.07-.6-.2.21-.24c-.66-.18-1.34-.36-2-.52Z"/><path class="cls-119" d="M259.44,159.79a12.59,12.59,0,0,1,1.51.78l.22-.07-.6-.2.21-.24c-.66-.18-1.34-.36-2-.52Z"/><path class="cls-120" d="M280.66,169.49l.08-.1-.36-.21C280.47,169.28,280.57,169.38,280.66,169.49Z"/><path class="cls-121" d="M280.66,169.49l.08-.1-.36-.21C280.47,169.28,280.57,169.38,280.66,169.49Z"/><path class="cls-122" d="M279.75,168.56a6.25,6.25,0,0,1,.58.57l.19-.07Z"/><path class="cls-123" d="M279.75,168.56a6.25,6.25,0,0,1,.58.57l.19-.07Z"/><path class="cls-124" d="M280.6,169.11l-.08-.05-.19.07.05.05.36.21.08-.09A1.86,1.86,0,0,1,280.6,169.11Z"/><path class="cls-125" d="M280.6,169.11l-.08-.05-.19.07.05.05.36.21.08-.09A1.86,1.86,0,0,1,280.6,169.11Z"/><path class="cls-126" d="M280.6,169.11l-.08-.05-.19.07.05.05.36.21.08-.09A1.86,1.86,0,0,1,280.6,169.11Z"/><path class="cls-127" d="M251.19,158.44h-.14s0,0,0,0h.05a11.61,11.61,0,0,1,5.25,1.18l.07-.23a1.88,1.88,0,0,1-.45-.16c0-.11-.09-.23-.14-.34-1.56-.3-3.13-.56-4.73-.75A2.45,2.45,0,0,1,251.19,158.44Z"/><path class="cls-128" d="M251.19,158.44h-.14s0,0,0,0h.05a11.61,11.61,0,0,1,5.25,1.18l.07-.23a1.88,1.88,0,0,1-.45-.16c0-.11-.09-.23-.14-.34-1.56-.3-3.13-.56-4.73-.75A2.45,2.45,0,0,1,251.19,158.44Z"/><path class="cls-129" d="M229.6,159.22a.88.88,0,0,0,.24,0v0a12.85,12.85,0,0,1,3.2-.41,13.15,13.15,0,0,1,1.69.13l.17-.14-.62.05c.08-.25.16-.49.25-.74-1.6.19-3.18.44-4.74.73C229.73,159,229.67,159.09,229.6,159.22Z"/><path class="cls-130" d="M229.6,159.22a.88.88,0,0,0,.24,0v0a12.85,12.85,0,0,1,3.2-.41,13.15,13.15,0,0,1,1.69.13l.17-.14-.62.05c.08-.25.16-.49.25-.74-1.6.19-3.18.44-4.74.73C229.73,159,229.67,159.09,229.6,159.22Z"/><path class="cls-131" d="M229.6,159.22l0,.06.26-.07v0A.88.88,0,0,1,229.6,159.22Z"/><path class="cls-132" d="M229.6,159.22l0,.06.26-.07v0A.88.88,0,0,1,229.6,159.22Z"/><path class="cls-133" d="M229.6,159.22l0,.06.26-.07v0A.88.88,0,0,1,229.6,159.22Z"/><path class="cls-134" d="M324.19,226.06a81.55,81.55,0,1,1-81.56-81.55A81.56,81.56,0,0,1,324.19,226.06Z"/><path class="cls-2" d="M272.89,188.2c1.83-.24,3.66-3,3.66-3s2.74-3.95,8.91-3.59,7.66,2.4,8,3.71,2.4,1.68,4.91,1.56a4.69,4.69,0,0,1,3.89,1.92s2.17.35,3.77.71,0-1.43-.23-2.15a6.17,6.17,0,0,1-.34-3c.23-1.07,4.34,1,6.05,1.32s1.15-1.44,1.15-1.44l1.14-.23-3.44-5.3-.23-.32-.56.59L308,176.1,306.6,176l-1,1.32-1-1.2-1.6-.48L300.77,174l-1.71-2-.8-.48.8,2.16,2.06,1.91a10.41,10.41,0,0,1,.8,2.16c0,.48-1.95-.24-2.4-.36a19.58,19.58,0,0,1-2.63-2l-1.94-2-2.75-2s-5.48-3.47-6.17-3.47a57.94,57.94,0,0,1-5.6-1.68l1.72,1.68,3.77,2.15s3.54,1.2,4.91,1.8a7.09,7.09,0,0,1,2.29,1.68l-.69.36,1,2.63L291.29,174s-3.2-2-5.14-2-4.58-1.68-5.26-1.92S278,168.08,278,168.8s-2,.72-4,1.55-.23,3-.23,3l-1.37,1.55-.57,2.16.8,2.63.46,2.4-.35,2.51s-.11.84-1.71,1a3.5,3.5,0,0,0-2.86,2.16.13.13,0,0,1,0,.07c.2.1.72.14.6.28a3.59,3.59,0,0,0-.35.49h0C269.23,188.32,271.06,188.44,272.89,188.2Z"/><path class="cls-2" d="M265.18,186a4.57,4.57,0,0,1-.77-.8,7.48,7.48,0,0,1-.71-1.74,9.09,9.09,0,0,0-2.05-6.33,1.09,1.09,0,0,0-1-.47l-1.94-2.2a2.78,2.78,0,0,0-1.25.46,6.24,6.24,0,0,1-1.93,1.13s1.47,1.59,2.38,2.72,1.13,5.2,1.13,5.2l2.26,1.13s.79,1.92,1.24,2,2.49-.34,3.05-.34a7.19,7.19,0,0,1,2.12,1.1c.2,0,.37,0,.43-.14l0,0Z"/><path class="cls-2" d="M310.14,178.38h0l.23.32Z"/><path class="cls-2" d="M268.17,187.79c-.06.11-.23.15-.43.14l.37.25-1.64.38.82,2s.34-1.78,1.13-2a3.59,3.59,0,0,1,.35-.49C268.89,187.93,268.37,187.89,268.17,187.79Z"/><path class="cls-2" d="M267.74,187.93a6.78,6.78,0,0,1-1.71-.45l.44,1.08,1.64-.38Z"/><path class="cls-135" d="M324.88,226.06a82.25,82.25,0,1,1-82.24-82.25A82.25,82.25,0,0,1,324.88,226.06Z"/><path class="cls-136" d="M203,223.22c1.83.28,3-.66,4.3-1.19l2.43-1.27a1.63,1.63,0,0,1,1.92.4,1.59,1.59,0,0,0,1.91-.66,10.85,10.85,0,0,1,1.6-1.43,9.71,9.71,0,0,0,1.77-.21,9.74,9.74,0,0,1,5,2.75c2.45.88,4.39,2.44,6.61,3.72,2.17.65,4.27,1.42,5.52,2.9.42,1.4,1.78,1.84,3.44,1.85a23.5,23.5,0,0,1,3.81.17c1,.46,1.83,1.26,3.11,1.73a14.84,14.84,0,0,1,2.74.36,12.07,12.07,0,0,1,3.8,3.47,2.09,2.09,0,0,1-.06,1.33c-1.61,2.17-2.34,5.15-3.1,8.21a13.46,13.46,0,0,1-1.54,4,8,8,0,0,1-2.38,1.92c-1.26.91-2.81,1.55-3.7,2.64a63.7,63.7,0,0,0-3,9.47c-.19.8-1.15,1.19-2.15,1.13a4.29,4.29,0,0,0-3.77,3.59,2.88,2.88,0,0,1-2.17,2.11,1.82,1.82,0,0,0-1.23,1.8,3.14,3.14,0,0,1-.71,2.2,1.35,1.35,0,0,0-.31,1.41,10.54,10.54,0,0,1,1.72,4.23c-.5,1.3.58,2.08,1.19,2.72a2,2,0,0,1,.43,2.05,3,3,0,0,1-1.35.46,8.05,8.05,0,0,1-3.42-.2c-1.15-.34-1.67-1.4-2.13-2.49a31.22,31.22,0,0,1-2-5c0-2-1.15-2.94-1.64-4.38a22.78,22.78,0,0,1-1.07-7.25,7.6,7.6,0,0,0-1.71-3.44,8.28,8.28,0,0,1-1.29-2,8.13,8.13,0,0,0-1.11-5.4l-.46-4.16c-.73-1.3-2.13-1.84-3.29-2.62a21.21,21.21,0,0,0-3.1-1.51c-1.45-1.07-2-2.93-2.7-4.73a24.09,24.09,0,0,0-1.8-3.24,22.68,22.68,0,0,1,.26-4c0-.7.08-1.55.12-2.24a5.76,5.76,0,0,0,1.37-2.49,3.34,3.34,0,0,0-1-3.25,2.07,2.07,0,0,0-1.17-.39,11.17,11.17,0,0,1-5.24-2,5.33,5.33,0,0,1-1.35-.88,11.77,11.77,0,0,0-6.41-3.86c-2.15-1.37-4.91-1.83-7.17-2.93-1.63-.79-2.39-2.5-3-4.45a2.93,2.93,0,0,0-2-2.25,6.29,6.29,0,0,1-2.54-4.92,29.47,29.47,0,0,0-1.62-3.06,2.21,2.21,0,0,1,0-1.54,10.33,10.33,0,0,0-.39-6.83,6.91,6.91,0,0,1,0-1.76,10.85,10.85,0,0,1,1.7-5.2,2.74,2.74,0,0,0,.24-2.14,3.79,3.79,0,0,1,1.4-4.17,1.89,1.89,0,0,0,.77-2,7,7,0,0,1,1.75-2.77,7.5,7.5,0,0,1,1-2.12,27.25,27.25,0,0,1,6.64-7.88c1.93-1.7,3.77-3.25,5.86-4.79l3.88-3,5.65-3.46a51,51,0,0,1,6.16-3,2.46,2.46,0,0,1,1.14-.13,34.93,34.93,0,0,0,1.75,3,5.59,5.59,0,0,1,1.63,0,8.66,8.66,0,0,1,1.43.79c.26.13.66-.08.76.18a4.15,4.15,0,0,0,1.2,1.45,26.06,26.06,0,0,0,2.81,2.39c1.11,0,2.15.34,2.42,1.06a2.62,2.62,0,0,1,.19.63,8.59,8.59,0,0,1-1.23,5.54.7.7,0,0,1-.78.28,2.77,2.77,0,0,1-1.87-1.76c-.33-.69-.54-1.54-1.15-1.95a2.41,2.41,0,0,0-1.05-.32,1.18,1.18,0,0,0-1.19,1,1.52,1.52,0,0,1-.38.86c-.53.49-1.47.51-2,1a1.69,1.69,0,0,0-.57,1.5,3.56,3.56,0,0,1-4.45,2.45,4.68,4.68,0,0,0-3.73.88c-.19.6.08,1.21-.08,1.77-.06.24-.49.86-.54,1.09s.28.54.54.64c.51.2,1,.49,1.62.67l1.32,1.6c.18.2.56.37.75.27,1.33-.7,2.92-1.12,4-2.14a10,10,0,0,0,2-3.88c.08-.2.33-.46.49-.43a12.56,12.56,0,0,0,3.66-.1,3.25,3.25,0,0,1,2.73,2.49c.25,1,.07,2.25.36,3.16a13.88,13.88,0,0,0,1.87,2c.42.16,1,.21,1.32.64.82,1.21.72,3.58-.55,4.26a6.72,6.72,0,0,1-2,.66c-.76-.22-1.59-.61-2.62-.95a8,8,0,0,0-3.74,2c-.15.14-.3.56,0,.65.67.2,1.18-.18,1.74-.39a2.52,2.52,0,0,1,1.61-.06.65.65,0,0,1,.42.61,3.83,3.83,0,0,1-.86,2.22,9.91,9.91,0,0,1-4.58,3.23c-1.49,1.53-2.21,3.95-3.08,6.09a14.68,14.68,0,0,1-6.09,4.17,1.51,1.51,0,0,0-.71,2,12.15,12.15,0,0,1,1.13,2.57,4.33,4.33,0,0,1-.07,1.41.82.82,0,0,1-.59.53c-1.26,0-1.8-.94-2.4-1.67a7.1,7.1,0,0,0-2.3-2.16,6.74,6.74,0,0,0-5,1.09,6.31,6.31,0,0,0-2.57.86,1.45,1.45,0,0,0-.3,1,8.24,8.24,0,0,1-1,3.56,4.13,4.13,0,0,0-.23,1.65l0,1.76a2.62,2.62,0,0,0,.57,1.17,1,1,0,0,0,1.21.13c.84-.69,1.41-1.76,2.69-2a2.85,2.85,0,0,0,1.28.13c.76.11,1,.7,1.26,1.19a3.49,3.49,0,0,1-.22,2.62c-.08.23-.11.58.05.68.43.24.87,0,1.29,0,.86-.11,1.09.58,1.59.89"/><path class="cls-137" d="M252.56,298.62a14.67,14.67,0,0,1,5.17.52,25.47,25.47,0,0,1,2.88-1,23.26,23.26,0,0,1,8.54,2.06,25.37,25.37,0,0,1,3.82,1.93c-1.27.58-2.55,1.14-3.78,1.65a67,67,0,0,1-21,4.52,81.24,81.24,0,0,1-35.42-5.2,12.42,12.42,0,0,1-2.51-1.06,6.31,6.31,0,0,1,4.84-2.75l3.6-.56a20.22,20.22,0,0,1,6,1,11.88,11.88,0,0,1,3,.28c2.33-.23,3.5-1.71,4.75-3a3.58,3.58,0,0,0,1-1.92,4.78,4.78,0,0,1,2.86-3.43c.13-.07.5,0,.34.46a14.12,14.12,0,0,0-.9,2.16,1.44,1.44,0,0,0,.31,1.24,9.49,9.49,0,0,1,1,3.05,5.53,5.53,0,0,0,4.23,2.14c1.2,0,2.17.44,3.28.58.31,0,.68.09.89-.11Z"/><path class="cls-138" d="M235.85,157.46a5.37,5.37,0,0,1,.4-1.31,2.26,2.26,0,0,0,.32-2.05,2.62,2.62,0,0,0-.56-.81c-.62-.44-1.47-.77-1.88-1.48a6,6,0,0,1,.8-2c-1.15-.73-2.33-1.45-2.74-2.8a.35.35,0,0,0-.49-.23c-.31-.28.05-.66.11-1a1.94,1.94,0,0,1-.9.12c-.07,0-.19.17-.2.17-1.26.2-2.56.3-3.65.46a2.4,2.4,0,0,1-1.75.23.6.6,0,0,0-.56.18,10.27,10.27,0,0,0-1.69,3.82c0,.1-.13.51.19.34.26.18.31.53.59.63s.85,0,1,0,.54,0,.49.25a2.44,2.44,0,0,1-.52,1.15,3.22,3.22,0,0,0-.42,3,2.79,2.79,0,0,1,.11,1.87,1.85,1.85,0,0,0,0,1.35,15.93,15.93,0,0,0,1,1.55,4.52,4.52,0,0,0,1.83,2.09l4.53,1.43a.64.64,0,0,0,.6-.29c.38-.64.79-1.39,1.26-2A25.44,25.44,0,0,0,235.85,157.46Z"/><path class="cls-139" d="M204.71,208.15a5.2,5.2,0,0,0-2.48-.13,2.31,2.31,0,0,0-.28.1,4,4,0,0,0-1.89,2,1.74,1.74,0,0,0,1.84,1.09l5.92-.86c1.47.25,2.66.71,4,1a2,2,0,0,0,.86-.09c.26-.05.58-.26.54-.55a2.43,2.43,0,0,0-1.06-1.66c-1.17-.35-2.59-.52-3.82-1Z"/><path class="cls-140" d="M238.36,160.39a1.37,1.37,0,0,1,.53-.13,9.29,9.29,0,0,1,2.52,1.07c.29.18.57.66.23.95a6,6,0,0,1-1.32.75h-1.57a3.85,3.85,0,0,1-1.76-1A4.18,4.18,0,0,1,238.36,160.39Z"/><path class="cls-141" d="M324.75,218.54A101.55,101.55,0,0,0,323,207.15a152.92,152.92,0,0,0-5-15.33c-1.73-3.7-4.19-7.81-4.19-7.81l-1.14.23s.57,1.8-1.15,1.44-5.82-2.39-6.05-1.32a6.17,6.17,0,0,0,.34,3c.23.72,1.83,2.51.23,2.15s-3.77-.71-3.77-.71a4.69,4.69,0,0,0-3.89-1.92c-2.51.12-4.57-.24-4.91-1.56s-1.83-3.35-8-3.71-8.91,3.59-8.91,3.59-1.83,2.76-3.66,3-3.66.12-4.46.36h0a12.8,12.8,0,0,0-1.08,4.78c-.7,1.51-1.6,2.84-1.52,5.11-.28,2-.55,4-.86,5.85a30,30,0,0,0-.11,5,4.46,4.46,0,0,0,2.82,4.17l1.11,1.15c.61.83,1,1.91,1.57,2.74,1.14,1.59,2.24,3.23,4.69,3.45a12.69,12.69,0,0,0,4.95-.66,9.75,9.75,0,0,0,4.44-1.1c1.79-.53,3.12-1.53,5.37-1.55a2.33,2.33,0,0,1,.93.34c1.54.73,2,2.62,2.46,4.4a6.27,6.27,0,0,0,1.8,4c.83,1.93,1.1,4.39,1.65,6.62.32,1.34.86,3.38-.07,4.49a2.88,2.88,0,0,0-.65,2.21l2.26,5.43a11.62,11.62,0,0,1-.79,3.8,45.28,45.28,0,0,0,.89,7.13,25.93,25.93,0,0,1-1,4.25,1.06,1.06,0,0,0,.5,1.24c2.93-.19,5.7-.6,8.79-.81a3.21,3.21,0,0,0,1.69-.56,8.73,8.73,0,0,1,3-4,7.81,7.81,0,0,1,1.63-3.24c.73-.8,1.74-1.3,2.49-2.1.52-1.77.68-3.86,1.33-5.4s7.16-7.73,7.16-7.73A74.16,74.16,0,0,0,324.75,218.54Z"/><path class="cls-142" d="M258.73,151.54l2.94,1.13,1.47.56,2.14.91.8-.57-1.47-1.24-3.39-2.83-2.27-.34-2.14-1.47-1.7-.9,1.25-.12,2.93,1.47,4.53,1.59,2.26.22,1.35,1.14,1.58.11-.67.9,2.6,2.27-1.47.67s-2-.67-1.92,0-3.4.57-3.4.57l-1-.79-.34-.79-1.7-.46L260,154l3.17,3.16-1.25,1.59.34,1.81-.56,1.69-.91,1.36-1,1.36a2.85,2.85,0,0,0-2.38.9c-1.13,1.13.57,1.13,3.39,1.93s5.88,5.65,5.88,5.65a22.78,22.78,0,0,1-3.28.57,30.25,30.25,0,0,0-4.62.44l-2.3,1.68c-.46.08,1.45,2.21,2.06,3a4.24,4.24,0,0,1,.69,2.28c.15,1.22.15,2,.23,2.15.74,1,2.33.32,2.25,1.36.18.72,1,1.42,1.24,1.92.12.21,2-.17,2.15-.12l3.09,1,0,0a.13.13,0,0,0,0-.07,3.5,3.5,0,0,1,2.86-2.16c1.6-.12,1.71-1,1.71-1l.35-2.51-.46-2.4-.8-2.63.57-2.16,1.37-1.55s-1.71-2.16.23-3,4-.83,4-1.55,2.17,1,2.86,1.19,3.31,1.92,5.26,1.92,5.14,2,5.14,2l2.17,2.39-1-2.63.69-.36a7.09,7.09,0,0,0-2.29-1.68c-1.37-.6-4.91-1.8-4.91-1.8l-3.77-2.15L280.43,166a57.94,57.94,0,0,0,5.6,1.68c.69,0,6.17,3.47,6.17,3.47l2.75,2,1.94,2a19.58,19.58,0,0,0,2.63,2c.45.12,2.4.84,2.4.36a10.41,10.41,0,0,0-.8-2.16l-2.06-1.91-.8-2.16.8.48,1.71,2,2.17,1.67,1.6.48,1,1.2,1-1.32,1.37.12,1.6,2.88.56-.59a67.77,67.77,0,0,0-10.25-11.45c-.46-.39-.8-1-1.42-1.2l-6.12-5.31a23.94,23.94,0,0,0-2.52-2,81.55,81.55,0,0,0-37.23-14,.55.55,0,0,0-.56.35c-.11.25.12.47.13.53a7.47,7.47,0,0,1-.66,3.85.81.81,0,0,0,.09.55c.33.57.7,1.1,1.07,1.62,1.08.64,2.25,1.21,2.9,1.51C257,153.46,258.73,151.54,258.73,151.54Z"/><polygon class="cls-143" points="292.45 176.32 290.06 176.56 290.29 177.88 293.52 178.72 293.76 177.76 292.45 176.32"/><polygon class="cls-143" points="282.01 175.58 284.04 178.21 285.72 178.69 285.6 177.25 283.44 174.98 282.37 174.86 282.01 175.58"/><polygon class="cls-143" points="279.78 172 281.21 173.79 282.05 173.79 280.74 171.76 279.78 172"/><polygon class="cls-144" points="256.31 164.83 258.75 163.24 260.63 162.52 259.98 161.65 259.55 161.01 258.03 160.77 256.16 159.98 254.79 159.26 253.93 159.19 253.57 157.91 252.2 157.91 251.05 157.28 250.47 158.07 251.77 159.03 252.2 160.06 252.78 160.62 253.85 160.38 255.15 160.54 255.73 161.41 254.65 161.25 255.58 162.13 255.58 162.92 256.67 163.32 256.31 164.83"/><polygon class="cls-144" points="252.22 160.87 253.29 161.56 254.29 162.33 254.68 163.17 253.06 164.17 251.6 164.09 251.6 162.86 250.84 162.48 250.6 161.87 251.07 161.71 251.07 161.1 252.22 160.87"/><polygon class="cls-145" points="216.56 210.36 216.56 211.59 213.79 212.2 215.94 212.81 219.32 212.81 221.78 213.74 220.24 211.28 219.01 209.74 216.56 210.36"/><path class="cls-146" d="M167.75,251.35c4.87-.57,7.14-1.14,7.14-6.5V206.37c-4.54-5.6-5.84-5.85-6.9-5.85v-2h17.13l28.18,34.67h.16v-24.6c0-4.87-1-7.55-7.55-8v-2h17.45v2c-5.84.73-6.33,2.6-6.33,6.49v47.83h-2.27l-36.13-44h-.17v32.48c0,5.85,1.71,7.39,7.72,8v2H167.75Z"/><path class="cls-146" d="M262.08,214.81c-1.46-5.68-6.33-15-15.91-15-4.22,0-8.69,2.44-8.69,7.71,0,4.39,1.54,6.17,8.37,9.58L257.78,223A16.8,16.8,0,0,1,266.71,238c0,7.15-5.2,17-20.13,17-7.72,0-11.37-2.76-13.89-2.76-1.71,0-2.11,1.46-2.44,2.76H227.9v-20h2.35c1.63,8.2,6.34,17.37,16.65,17.37,9.74,0,10.15-8,10.15-9.09,0-5.44-3.82-7.39-9.09-9.91l-5.44-2.6C228.63,224,228.63,217,228.63,213.27c0-5,2.52-16,18-16,6.49,0,10.3,2.67,12.66,2.67,1.87,0,2.27-1.21,2.68-2.76h2.44v17.62Z"/><path class="cls-146" d="M271.49,198.49h46v16.32h-1.94c-1.79-8.44-4-13.56-17.95-13.56-4.38,0-5.84.33-5.84,3.82V223.9c10.07.17,11.28-5.6,12.42-12.09h2v27.44h-2c-.89-6.66-2.19-12.58-12.42-12.58v18.91c0,5.36,3.25,5.53,8.93,5.77v2H271.49v-2c4.63-.49,7.14-.73,7.14-5.77v-39.3c0-5.35-3.33-5.51-7.14-5.76Z"/><path class="cls-147" d="M242.64,145.17a80.89,80.89,0,1,1-80.89,80.89,81,81,0,0,1,80.89-80.89m0-2.25a83.14,83.14,0,1,0,83.14,83.14,83.14,83.14,0,0,0-83.14-83.14Z"/><circle class="cls-148" cx="242.64" cy="226.06" r="82.25"/></g></g></g></svg>
