<svg xmlns="http://www.w3.org/2000/svg" viewBox="0 0 128.59 128.5"><defs><style>.cls-1{fill:#ffc22f;}</style></defs><g id="Layer_2" data-name="Layer 2"><g id="Layer_1-2" data-name="Layer 1"><path class="cls-1" d="M33.33,87.44A38.59,38.59,0,0,1,28.5,49.55l7.37,6.36L33.45,23.05.58,25.46l8,6.86a64.28,64.28,0,0,0,79,91.87l-9.25-23.85A38.79,38.79,0,0,1,33.33,87.44Z"/><path class="cls-1" d="M95.26,41.07A38.59,38.59,0,0,1,100.09,79L92.72,72.6l2.42,32.86L128,103.05l-7.95-6.86A64.27,64.27,0,0,0,37.85,5.68L48.39,29A38.9,38.9,0,0,1,95.26,41.07Z"/></g></g></svg>
