<svg xmlns="http://www.w3.org/2000/svg" viewBox="0 0 186.35 76.17"><defs><style>.cls-1,.cls-2{fill:none;stroke:#ffc22f;stroke-linejoin:round;stroke-width:6px;}.cls-1{stroke-linecap:round;}</style></defs><g id="Layer_2" data-name="Layer 2"><g id="Layer_1-2" data-name="Layer 1"><path class="cls-1" d="M55,42.34a312,312,0,0,1-32.09-2.48"/><path class="cls-1" d="M109.41,42.75q-8,.07-16.09.08-8.31,0-16.51-.09"/><path class="cls-1" d="M163.58,39.88c-10.39,1.65-21.53,2.19-32.56,2.47"/><path class="cls-1" d="M183.35,7.37A21.41,21.41,0,0,0,170.49,3c-12.66,0-23,11.48-23,25.51v26a10.66,10.66,0,0,0,10.62,10.63l24.8-.94"/><path class="cls-1" d="M38.88,42V54.48A10.66,10.66,0,0,1,28.25,65.11l-24.8-.94"/><path class="cls-1" d="M3,7.37A21.38,21.38,0,0,1,15.85,3c12.67,0,23,11.48,23,25.51v1.8"/><path class="cls-1" d="M93.15,31.76C92.52,15.82,80.56,3,66,3a25.62,25.62,0,0,0-18.09,7.7"/><path class="cls-1" d="M38.88,42.39V60.64A12.57,12.57,0,0,0,51.41,73.17H80.64A12.57,12.57,0,0,0,93.17,60.64"/><rect class="cls-2" x="55.69" y="33.98" width="20.67" height="18.17"/><path class="cls-1" d="M93.17,43.67v17A12.57,12.57,0,0,0,105.7,73.17h29.24a12.57,12.57,0,0,0,12.53-12.53V33.07C147.47,16.53,135.25,3,120.32,3a25.6,25.6,0,0,0-18,7.6"/><rect class="cls-2" x="109.98" y="33.98" width="20.67" height="18.17"/><polyline class="cls-1" points="180.49 47.23 164.44 47.72 163.87 29.57 179.93 29.07"/><polyline class="cls-1" points="6.01 47.14 22.07 47.8 22.81 29.65 6.76 28.99"/></g></g></svg>
