<svg xmlns="http://www.w3.org/2000/svg" viewBox="0 0 163.71 99.65"><defs><style>.cls-1{fill:#ffc22f;}</style></defs><g id="Layer_2" data-name="Layer 2"><g id="Layer_1-2" data-name="Layer 1"><path class="cls-1" d="M131.68,35.59a31.94,31.94,0,0,0-7.62.95A42.65,42.65,0,0,0,41.44,29a36.36,36.36,0,0,0-5.85-.52,35.59,35.59,0,0,0,0,71.18h96.09a32,32,0,0,0,0-64.06Zm-1.34,55.8H36.83a27.71,27.71,0,0,1,0-55.42,28.83,28.83,0,0,1,4.56.41l5.8,1,1.89-5.57a34.59,34.59,0,0,1,67,6.11l1.09,7.54,7.41-1.81a24.23,24.23,0,1,1,5.76,47.77Z"/></g></g></svg>
