<?xml version="1.0" encoding="utf-8"?>
<!-- Generator: Adobe Illustrator 24.2.1, SVG Export Plug-In . SVG Version: 6.00 Build 0)  -->
<svg version="1.1" id="Layer_1" xmlns="http://www.w3.org/2000/svg" xmlns:xlink="http://www.w3.org/1999/xlink" x="0px" y="0px"
	 viewBox="0 0 439.1 86.8" style="enable-background:new 0 0 439.1 86.8;" xml:space="preserve">
<style type="text/css">
	.st0{fill:#FFFFFF;}
</style>
<g id="Layer_2_1_">
	<g id="Layer_1-2">
		<path class="st0" d="M95.3,24.3c0.2-2.3,3.2-2.6,4.1-2.6c19.7,0,43.1,0,63,0c4.3,0,6.1-1.6,6.7-5.8c0.4-3,0.9-5.9,1.3-8.9
			c0.6-4.3-0.8-5.9-5-6C143.1,1,120.7,0.9,98.3,1.1C89.9,1,81.9,5.1,77.1,12c-4.1,5.5-5.5,11.7-5.9,18C70.7,36.4,73,41.3,78,44.7
			c4.2,2.8,9.1,3.8,14.3,3.8c16.6,0,29.2,0,45.8,0c1.7,0,5.8-0.2,5.9,2.4c-0.2,2.9-0.5,5.8-1,8.6c-0.7,5.1-2.2,6.3-7.3,6.3H71.5
			c-3.8,0-5.7,1.5-6.3,5.3c-0.5,3.3-1,6.7-1.4,10c-0.4,3.3,1.1,5.1,4.4,5.1c24.7,0,49.4,0.1,74.1-0.1c7.5,0,14.6-3.4,19.4-9.3
			c4.9-5.8,6-12.5,6.3-19.2c0.2-7.1-1.7-13.4-8.4-16.3c-3-1.2-6.2-1.8-9.4-1.8c-15-0.2-35.8-0.1-50.7-0.1c-4.7,0-6.1-1.7-5.6-6.3
			L95.3,24.3z"/>
		<path class="st0" d="M398.3,79.8c-4.1,1.5-8,2.8-11.9,4.5c-3.6,1.6-7.6,2.3-11.6,2.2c-8.2-0.2-16.5,0-24.7-0.1
			C335,86,327,76.8,329,61.5c2.4-18.4,5.1-36.8,7.7-55.2c0.5-3.4,2.4-5.1,5.8-5.1c6.3-0.1,12.6-0.1,18.9,0c3.9,0.1,5.3,1.9,4.7,6
			c-2.4,17.5-4.9,35-7.4,52.5c-0.7,5.1,0.4,6.3,5.5,6.3c10.1,0,20.2,0,30.3,0c4.6,0,6.1-1.4,6.8-6c2.5-17.4,4.9-34.9,7.3-52.3
			c0.8-5.3,2.3-6.6,7.5-6.6c5.6,0,11.3,0,16.9,0c4.2,0,5.6,1.7,5.1,5.9c-3.4,24.5-6.9,49-10.3,73.6c-0.6,4.3-2.4,5.8-6.7,5.8
			c-5.5,0-10.9,0-16.4,0C399.1,86.3,398.4,85.6,398.3,79.8"/>
		<path class="st0" d="M246.4,24.3c0.2-2.3,3.2-2.6,4.1-2.6c19.7,0,43.1,0,63,0c4.3,0,6.1-1.6,6.7-5.8c0.4-3,0.9-5.9,1.3-8.9
			c0.6-4.3-0.8-5.9-4.9-6c-22.4,0-44.8-0.1-67.2,0.1C241,1,233,5.1,228.1,12c-4.1,5.5-5.6,11.7-6,18c-0.4,6.5,1.9,11.4,6.9,14.8
			c4.2,2.8,9.1,3.8,14.3,3.8c16.7,0,29.2,0,45.8,0c1.7,0,5.8-0.2,5.9,2.4c-0.2,2.9-0.5,5.8-1,8.6c-0.7,5.1-2.2,6.3-7.3,6.3h-64.3
			c-3.9,0-5.7,1.5-6.2,5.3c-0.5,3.3-1,6.7-1.4,10c-0.4,3.4,1.1,5.1,4.4,5.1c24.7,0,49.4,0.1,74.2-0.1c7.5,0,14.6-3.4,19.4-9.3
			c4.9-5.8,6-12.5,6.3-19.2c0.2-7.1-1.7-13.4-8.4-16.3c-3-1.2-6.2-1.8-9.4-1.7c-15-0.2-35.8-0.1-50.8-0.1c-4.7,0-6.1-1.7-5.6-6.3
			L246.4,24.3z"/>
		<path class="st0" d="M209.7,43.9c-1.7,12.3-3.5,24.6-5.2,36.9c-0.6,4.1-2.2,5.5-6.2,5.5c-6.1,0-12.2,0-18.3,0
			c-3.9,0-5.3-1.7-4.8-5.6c3.4-24.7,6.9-49.4,10.4-74.1c0.5-3.7,2.5-5.5,6.2-5.6c6.2-0.1,12.5-0.1,18.8,0c3.7,0.1,4.9,1.6,4.4,5.4
			C213.3,18.9,211.5,31.4,209.7,43.9"/>
		<path class="st0" d="M56.7,1h-47C5.3,1,4.8,2.8,4.6,4.6C4.2,7.3,1.4,25.8,1.2,28C0,38.2,1.4,44.5,5.9,51.3c5.2,7.8,20,14,33.1,6.6
			c3.9-2.2,7.4-5,10.2-8.5c0.5-0.6,0.4-1.4-0.2-1.9c-0.4-0.3-1.1-0.4-1.5-0.1c-3.1,2-6.5,3.5-10.1,4.3c-9,2.2-15.7,0.3-21.6-4.2
			C12,44.8,9.2,40.8,8,36.3c-0.1-0.3,0-0.6,0.3-0.7c0.3-0.1,0.6,0,0.7,0.3c1.5,2.2,3.3,4.2,5.3,5.9c6,5,15.5,6.8,26,1.8
			c8.1-3.9,16.9-13.4,19.1-25.7c1.2-6.9,0.9-5.7,1.9-12.3C61.9,1.6,60.5,1,56.7,1"/>
	</g>
</g>
</svg>
