<svg xmlns="http://www.w3.org/2000/svg" viewBox="0 0 485.27 452.12"><defs><style>.cls-1{fill:none;}.cls-2{fill:#e21d39;}</style></defs><g id="Layer_2" data-name="Layer 2"><g id="Layer_1-2" data-name="Layer 1"><rect class="cls-1" width="485.27" height="452.12"/><path class="cls-2" d="M170.82,215.63,180.56,200H69.08l14.5,7.71L62.74,240.78l10.87,10h61a36.26,36.26,0,0,0,12-3.17,19.23,19.23,0,0,0,7.93-6.35l5.21-8.15H131.39l-4.3,7H95.36l18.58-29.91h31.95l-3.4,5.21h28.33Z"/><path class="cls-2" d="M290,215.63,299.74,200H188.26l14.5,7.71-20.84,32.85,10.87,10h61a36.27,36.27,0,0,0,12-3.17,19.23,19.23,0,0,0,7.93-6.34l5.22-8.16H250.57l-4.3,7.25H214.55l18.58-29.68h31.72l-3.4,5.21Z"/><polygon class="cls-2" points="418 208.17 422.53 201.14 397.16 201.14 360.22 222.44 348.89 201.14 307.2 201.14 322.38 208.85 301.99 241.25 279.33 252.12 321.02 252.12 337.57 225.39 347.08 244.87 380.62 225.84 364.53 252.12 390.59 251.9 418 208.17"/></g></g></svg>
