<svg xmlns="http://www.w3.org/2000/svg" viewBox="0 0 114.34 123.72"><defs><style>.cls-1{fill:#ffc22f;}</style></defs><g id="Layer_2" data-name="Layer 2"><g id="Layer_1-2" data-name="Layer 1"><g id="Group"><path class="cls-1" d="M57.51,123.72H57.4C18.68,113,5.19,79,0,39.39a2.84,2.84,0,0,1,1.2-2.7A77.63,77.63,0,0,0,29,1.77,2.88,2.88,0,0,1,32.21.05c9.73,1.87,15.73,2.82,25.27,2.73C67,2.87,72.38,1.93,82.14.05a2.86,2.86,0,0,1,3.17,1.72,77.76,77.76,0,0,0,27.81,34.92,2.83,2.83,0,0,1,1.19,2.7C109.16,78.8,97.72,113,58.87,123.71Zm.64-5.76,5.57-1.83,9.09-4.34c19.69-11.53,28.72-32.62,33.6-58.86l2-12.67-4-3A81.86,81.86,0,0,1,82.34,9.07L81,6.09l-1.3.25A101.7,101.7,0,0,1,57.48,8.51,103.16,103.16,0,0,1,38,6.93l-4.64-.85L32,9.07A82.22,82.22,0,0,1,9.92,37.25l-4,3L8,52.9c5.18,26.15,15.24,47.3,35.33,58.87l9.24,4.36Zm-.88-8.85h-.11c-29.57-8.18-39.79-34.21-43.68-64a2.85,2.85,0,0,1,1.18-2.7,57.91,57.91,0,0,0,20.7-26,2.82,2.82,0,0,1,3.17-1.7c7.3,1.4,11.75,2.1,18.88,2s11.07-.64,18.41-2A2.85,2.85,0,0,1,79,16.38a57.76,57.76,0,0,0,20.67,26,2.83,2.83,0,0,1,1.2,2.7c-3.89,29.68-12.54,55.83-42.25,64Zm.65-5.77,3.91-1.28,6.74-3.22c14.55-8.53,21.27-24.14,25-43.8l1.42-9.1-2.67-2a62.51,62.51,0,0,1-16.8-21.42l-.79-1.76-.44.08a78.45,78.45,0,0,1-16.83,1.65,77.48,77.48,0,0,1-14.78-1.22l-3-.54-.8,1.79A62.35,62.35,0,0,1,22.08,43.9l-2.67,2L20.87,55A97.16,97.16,0,0,0,27,75.22l2.8,5.61.24.41,3.17,4.93.38.5,3.72,4.43.09.09,4.52,4.1a43.69,43.69,0,0,0,5.24,3.54L54,102.06ZM28.38,56a3,3,0,0,1-2.09-.69,2.86,2.86,0,0,1-.28-4L45.32,29a2.86,2.86,0,0,1,4.33,3.75L30.33,55A2.88,2.88,0,0,1,28.38,56Z"/></g></g></g></svg>
