<svg xmlns="http://www.w3.org/2000/svg" viewBox="0 0 204.08 117.94"><defs><style>.cls-1{fill:#333;}.cls-2{fill:#ffc22f;}.cls-3{fill:#ffc946;fill-rule:evenodd;}</style></defs><g id="Layer_2" data-name="Layer 2"><g id="Layer_1-2" data-name="Layer 1"><path class="cls-1" d="M56,115.62l6.89-6.9,6.63,6.63a3.54,3.54,0,0,0,5-5l-6.63-6.63,6.55-6.55a3.54,3.54,0,0,0-5-5l-6.55,6.55L56,91.9a3.54,3.54,0,0,0-5,5l6.82,6.82-6.9,6.89a3.54,3.54,0,0,0,5,5Z"/><path class="cls-1" d="M105.57,26.05l6.9-6.9,6.62,6.63a3.54,3.54,0,0,0,5-5l-6.63-6.62L124,7.6a3.54,3.54,0,0,0-5-5l-6.54,6.55-6.82-6.82a3.54,3.54,0,0,0-5,5l6.81,6.82L100.57,21a3.54,3.54,0,0,0,5,5Z"/><path class="cls-2" d="M28.37,103.76a14.19,14.19,0,1,0-14.18,14.18A14.18,14.18,0,0,0,28.37,103.76Zm-22.83,0a8.65,8.65,0,1,1,8.65,8.64A8.65,8.65,0,0,1,5.54,103.76Z"/><path class="cls-2" d="M78.67,14.19A14.19,14.19,0,1,0,64.48,28.37,14.19,14.19,0,0,0,78.67,14.19Zm-22.84,0a8.65,8.65,0,1,1,8.65,8.64A8.65,8.65,0,0,1,55.83,14.19Z"/><path class="cls-2" d="M150.44,83.16a14.19,14.19,0,1,0-14.19,14.19A14.18,14.18,0,0,0,150.44,83.16Zm-22.83,0a8.65,8.65,0,1,1,8.64,8.65A8.64,8.64,0,0,1,127.61,83.16Z"/><path class="cls-3" d="M30.72,30.11,45.07,41c1.43-1.89,2.9-3.75,4.39-5.52s3-3.47,4.45-4.92L41.18,17.81c-2,2-3.79,4-5.5,6.07S32.31,28,30.72,30.11Z"/><path class="cls-3" d="M15.37,54.35,31.64,62c.5-.95.93-1.94,1.46-2.87s1-1.85,1.64-2.89c1.19-2,2.47-4,3.77-6l-15-9.9c-1.45,2.21-2.87,4.44-4.22,6.73S16.56,51.88,15.37,54.35Z"/><path class="cls-3" d="M7.79,82.83l17.94,1.44a65.33,65.33,0,0,1,2.32-12.72l-17.29-5A83.22,83.22,0,0,0,7.79,82.83Z"/><path class="cls-3" d="M103.41,69.52l-6,16.9a75.55,75.55,0,0,0,16.18,5.25L116.68,74A59.66,59.66,0,0,1,103.41,69.52Z"/><path class="cls-3" d="M84.47,53.42,73.75,67.55c1.79,2.21,3.7,4.31,5.69,6.33,1,1,2,2,3.06,2.94s2.12,1.89,3.28,2.71L94,63.65a46.26,46.26,0,0,1-5-4.85C87.38,57.08,85.87,55.29,84.47,53.42Z"/><path class="cls-3" d="M72.91,31.31,58.66,41A90,90,0,0,0,66,56.51L78.46,44.17A71.73,71.73,0,0,1,72.91,31.31Z"/><polygon class="cls-2" points="190.52 23.85 204.08 17.03 190.52 10.21 193.06 17.03 190.52 23.85"/><path class="cls-3" d="M168.46,15.84l6,16.83a56.06,56.06,0,0,1,12.43-4.15l-3.14-17.71A70.68,70.68,0,0,0,168.46,15.84Z"/><path class="cls-3" d="M146.31,34l10.43,13.75a65.34,65.34,0,0,1,4.2-5.05,42.29,42.29,0,0,1,4.73-4.54l-8.13-15.7a53.65,53.65,0,0,0-5.93,5.45C149.75,29.88,148,31.9,146.31,34Z"/><path class="cls-3" d="M132.43,59.32l13.48,9.16a65.82,65.82,0,0,1,5.2-12l-12-11.87A83.56,83.56,0,0,0,132.43,59.32Z"/><path class="cls-1" d="M177.07,95l6.9-6.9,6.62,6.63a3.54,3.54,0,0,0,5-5L189,83.12l6.55-6.54a3.54,3.54,0,0,0-5-5L184,78.12l-6.82-6.82a3.54,3.54,0,0,0-5,5L179,83.12,172.07,90a3.54,3.54,0,0,0,5,5Z"/></g></g></svg>
