<svg xmlns="http://www.w3.org/2000/svg" viewBox="0 0 714.55 416.52"><defs><style>.cls-1{fill:none;stroke:#333;stroke-width:17px;stroke-dasharray:53 53;}.cls-2{fill:#333;}.cls-3{font-size:46.61px;font-family:Roboto-Regular, Roboto;}</style></defs><g id="Layer_2" data-name="Layer 2"><g id="Layer_1-2" data-name="Layer 1"><path class="cls-1" d="M678,352.43s-80-140.19-209.27-137.5c-146.92,3-166.36,111.35-292,80.05C44.36,262,115.63,60.57,2,32.47"/><polygon class="cls-2" points="690.8 326.09 714.55 416.52 648.77 350.09 690.8 326.09"/><text class="cls-3" transform="translate(127.81 209.74) rotate(64.66)">c</text><text class="cls-3" transform="translate(140 235.61) rotate(46.21)">u</text><text class="cls-3" transform="matrix(0.96, 0.27, -0.27, 0.96, 164.67, 258.27)">s</text><text class="cls-3" transform="matrix(1, 0.08, -0.08, 1, 192.15, 264.73)">t</text><text class="cls-3" transform="translate(210.09 266.56) rotate(-4.45)">o</text><text class="cls-3" transform="translate(240.9 264.31) rotate(-19.2)">m</text><text class="cls-3" transform="translate(281.35 248.91) rotate(-26.4)">-</text><text class="cls-3" transform="matrix(0.88, -0.47, 0.47, 0.88, 293.36, 242.93)">f</text><text class="cls-3" transform="translate(307.44 235.34) rotate(-28.88)">i</text><text class="cls-3" transform="translate(317.69 229.66) rotate(-28.66)">t</text><text class="cls-3" transform="translate(331.7 222.01) rotate(-27.7)"> </text><text class="cls-3" transform="translate(341.8 216.69) rotate(-26.42)">i</text><text class="cls-3" transform="translate(351.88 211.45) rotate(-23.57)">n</text><text class="cls-3" transform="translate(375.79 201.23) rotate(-20.1)"> </text><text class="cls-3" transform="matrix(0.96, -0.28, 0.28, 0.96, 386.12, 197.21)">s</text><text class="cls-3" transform="translate(408.84 190.45) rotate(-11.41)">e</text><text class="cls-3" transform="translate(432.33 185.69) rotate(-6.45)">c</text><text class="cls-3" transform="translate(456.29 182.99) rotate(-1.97)">o</text><text class="cls-3" transform="translate(481.7 182.01) rotate(6.08)">n</text><text class="cls-3" transform="translate(506.96 184.64) rotate(14.16)">d</text><text class="cls-3" transform="translate(531.69 190.91) rotate(21.43)">s</text></g></g></svg>
